<?xml version="1.0" encoding="UTF-8"?>

<svg version="1.2" baseProfile="tiny" width="40mm" height="40mm" viewBox="0 0 4000 4000" preserveAspectRatio="xMidYMid" fill-rule="evenodd" stroke-width="28.222" stroke-linejoin="round" xmlns="http://www.w3.org/2000/svg" xmlns:xlink="http://www.w3.org/1999/xlink" xml:space="preserve">
 <g visibility="visible" id="MasterSlide_1_標準">
  <desc>Master slide
  </desc>
  <rect fill="none" stroke="none" x="0" y="0" width="4000" height="4000"/>
 </g>
 <g visibility="visible" id="Slide_1_page2">
  <g>
   <path fill="rgb(255,255,153)" stroke="none" d="M 500,1500 L 500,3500 3500,3500 3500,1500 2500,1500 2500,1100 1400,1100 1400,1500 500,1500 Z"/>
   <path fill="none" stroke="rgb(0,0,0)" id="Drawing_1_0" stroke-width="200" stroke-linejoin="round" d="M 500,1500 L 500,3500 3500,3500 3500,1500 2500,1500 2500,1100 1400,1100 1400,1500 500,1500 Z"/>
  </g>
  <g>
   <path fill="rgb(255,255,255)" stroke="none" d="M 2900,2000 C 2734,2000 2593,1962 2450,1879 2307,1797 2203,1693 2121,1550 2038,1407 2000,1266 2000,1100 2000,934 2038,793 2121,650 2203,507 2307,403 2450,321 2593,238 2734,200 2900,200 3066,200 3207,238 3350,321 3493,403 3597,507 3679,650 3762,793 3800,934 3800,1100 3800,1266 3762,1407 3679,1550 3597,1693 3493,1797 3350,1879 3207,1962 3066,2000 2900,2000 L 2900,2000 Z"/>
   <path fill="none" stroke="rgb(0,0,0)" id="Drawing_2_0" stroke-width="200" stroke-linejoin="round" d="M 2900,2000 C 2734,2000 2593,1962 2450,1879 2307,1797 2203,1693 2121,1550 2038,1407 2000,1266 2000,1100 2000,934 2038,793 2121,650 2203,507 2307,403 2450,321 2593,238 2734,200 2900,200 3066,200 3207,238 3350,321 3493,403 3597,507 3679,650 3762,793 3800,934 3800,1100 3800,1266 3762,1407 3679,1550 3597,1693 3493,1797 3350,1879 3207,1962 3066,2000 2900,2000 L 2900,2000 Z"/>
  </g>
  <g>
   <path fill="none" stroke="rgb(0,0,0)" id="Drawing_3_0" stroke-width="200" stroke-linejoin="round" stroke-linecap="round" d="M 2400,1100 L 3400,1100"/>
  </g>
  <g>
   <path fill="none" stroke="rgb(0,0,0)" id="Drawing_4_0" stroke-width="200" stroke-linejoin="round" stroke-linecap="round" d="M 2900,600 L 2900,1600"/>
  </g>
  <g>
   <path fill="rgb(102,102,102)" stroke="none" d="M 2000,3200 C 1871,3200 1762,3171 1650,3106 1538,3042 1458,2962 1394,2850 1329,2738 1300,2629 1300,2500 1300,2371 1329,2262 1394,2150 1458,2038 1538,1958 1650,1894 1762,1829 1871,1800 2000,1800 2129,1800 2238,1829 2350,1894 2462,1958 2542,2038 2606,2150 2671,2262 2700,2371 2700,2500 2700,2629 2671,2738 2606,2850 2542,2962 2462,3042 2350,3106 2238,3171 2129,3200 2000,3200 L 2000,3200 Z"/>
   <path fill="none" stroke="rgb(0,0,0)" id="Drawing_5_0" stroke-width="200" stroke-linejoin="round" d="M 2000,3200 C 1871,3200 1762,3171 1650,3106 1538,3042 1458,2962 1394,2850 1329,2738 1300,2629 1300,2500 1300,2371 1329,2262 1394,2150 1458,2038 1538,1958 1650,1894 1762,1829 1871,1800 2000,1800 2129,1800 2238,1829 2350,1894 2462,1958 2542,2038 2606,2150 2671,2262 2700,2371 2700,2500 2700,2629 2671,2738 2606,2850 2542,2962 2462,3042 2350,3106 2238,3171 2129,3200 2000,3200 L 2000,3200 Z"/>
  </g>
 </g>
</svg>