<?xml version="1.0" encoding="UTF-8"?>

<svg version="1.2" baseProfile="tiny" width="40mm" height="40mm" viewBox="0 0 4000 4000" preserveAspectRatio="xMidYMid" fill-rule="evenodd" stroke-width="28.222" stroke-linejoin="round" xmlns="http://www.w3.org/2000/svg" xmlns:xlink="http://www.w3.org/1999/xlink" xml:space="preserve">
 <g visibility="visible" id="MasterSlide_1_標準">
  <desc>Master slide
  </desc>
  <rect fill="none" stroke="none" x="0" y="0" width="4000" height="4000"/>
 </g>
 <g visibility="visible" id="Slide_1_page7">
  <g>
   <path fill="rgb(255,255,255)" stroke="none" d="M 2000,3500 L 500,3500 500,500 3500,500 3500,3500 2000,3500 Z"/>
   <path fill="none" stroke="rgb(0,0,0)" id="Drawing_1_0" stroke-width="200" stroke-linejoin="round" d="M 2000,3500 L 500,3500 500,500 3500,500 3500,3500 2000,3500 Z"/>
  </g>
  <g id="DrawingGroup_1">
   <g>
    <path fill="none" stroke="rgb(0,0,0)" id="Drawing_2_0" stroke-width="200" stroke-linejoin="round" stroke-linecap="round" d="M 1100,500 L 1100,3500"/>
   </g>
   <g>
    <path fill="none" stroke="rgb(0,0,0)" id="Drawing_3_0" stroke-width="200" stroke-linejoin="round" stroke-linecap="round" d="M 1700,500 L 1700,3500"/>
   </g>
   <g>
    <path fill="none" stroke="rgb(0,0,0)" id="Drawing_4_0" stroke-width="200" stroke-linejoin="round" stroke-linecap="round" d="M 2900,500 L 2900,3500"/>
   </g>
   <g>
    <path fill="none" stroke="rgb(0,0,0)" id="Drawing_5_0" stroke-width="200" stroke-linejoin="round" stroke-linecap="round" d="M 2300,500 L 2300,3500"/>
   </g>
  </g>
  <g id="DrawingGroup_2">
   <g>
    <path fill="none" stroke="rgb(0,0,0)" id="Drawing_6_0" stroke-width="200" stroke-linejoin="round" stroke-linecap="round" d="M 500,2900 L 3500,2900"/>
   </g>
   <g>
    <path fill="none" stroke="rgb(0,0,0)" id="Drawing_7_0" stroke-width="200" stroke-linejoin="round" stroke-linecap="round" d="M 500,2300 L 3500,2300"/>
   </g>
   <g>
    <path fill="none" stroke="rgb(0,0,0)" id="Drawing_8_0" stroke-width="200" stroke-linejoin="round" stroke-linecap="round" d="M 500,1100 L 3500,1100"/>
   </g>
   <g>
    <path fill="none" stroke="rgb(0,0,0)" id="Drawing_9_0" stroke-width="200" stroke-linejoin="round" stroke-linecap="round" d="M 500,1700 L 3500,1700"/>
   </g>
  </g>
 </g>
</svg>