<?xml version="1.0" encoding="UTF-8"?>

<svg version="1.2" baseProfile="tiny" width="40mm" height="40mm" viewBox="0 0 4000 4000" preserveAspectRatio="xMidYMid" fill-rule="evenodd" stroke-width="28.222" stroke-linejoin="round" xmlns="http://www.w3.org/2000/svg" xmlns:xlink="http://www.w3.org/1999/xlink" xml:space="preserve">
 <g visibility="visible" id="MasterSlide_1_標準">
  <desc>Master slide
  </desc>
  <rect fill="none" stroke="none" x="0" y="0" width="4000" height="4000"/>
 </g>
 <g visibility="visible" id="Slide_1_page3">
  <g>
   <path fill="rgb(255,255,255)" stroke="none" d="M 2000,3300 C 1761,3300 1557,3245 1350,3126 1143,3006 994,2857 874,2650 755,2443 700,2239 700,2000 700,1761 755,1557 874,1350 994,1143 1143,994 1350,874 1557,755 1761,700 2000,700 2239,700 2443,755 2650,874 2857,994 3006,1143 3126,1350 3245,1557 3300,1761 3300,2000 3300,2239 3245,2443 3126,2650 3006,2857 2857,3006 2650,3126 2443,3245 2239,3300 2000,3300 L 2000,3300 Z"/>
   <path fill="none" stroke="rgb(0,0,0)" id="Drawing_1_0" stroke-width="200" stroke-linejoin="round" d="M 2000,3300 C 1761,3300 1557,3245 1350,3126 1143,3006 994,2857 874,2650 755,2443 700,2239 700,2000 700,1761 755,1557 874,1350 994,1143 1143,994 1350,874 1557,755 1761,700 2000,700 2239,700 2443,755 2650,874 2857,994 3006,1143 3126,1350 3245,1557 3300,1761 3300,2000 3300,2239 3245,2443 3126,2650 3006,2857 2857,3006 2650,3126 2443,3245 2239,3300 2000,3300 L 2000,3300 Z"/>
  </g>
  <g>
   <path fill="none" stroke="rgb(0,0,0)" id="Drawing_2_0" stroke-width="200" stroke-linejoin="round" stroke-linecap="round" d="M 1600,1600 C 1600,1400 1700,1200 2000,1200 2300,1200 2400,1400 2400,1600 2400,1800 2000,2000 2000,2100 2000,2233 2000,2300 2000,2300"/>
  </g>
  <g>
   <path fill="rgb(0,0,0)" stroke="none" d="M 2000,2900 C 1972,2900 1949,2894 1925,2880 1901,2866 1884,2849 1870,2825 1856,2801 1850,2778 1850,2750 1850,2722 1856,2699 1870,2675 1884,2651 1901,2634 1925,2620 1949,2606 1972,2600 2000,2600 2028,2600 2051,2606 2075,2620 2099,2634 2116,2651 2130,2675 2144,2699 2150,2722 2150,2750 2150,2778 2144,2801 2130,2825 2116,2849 2099,2866 2075,2880 2051,2894 2028,2900 2000,2900 L 2000,2900 Z"/>
   <rect fill="none" stroke="none" x="1850" y="2600" width="301" height="301"/>
  </g>
 </g>
</svg>