<?xml version="1.0" encoding="UTF-8"?>

<svg version="1.2" baseProfile="tiny" width="40mm" height="40mm" viewBox="0 0 4000 4000" preserveAspectRatio="xMidYMid" fill-rule="evenodd" stroke-width="28.222" stroke-linejoin="round" xmlns="http://www.w3.org/2000/svg" xmlns:xlink="http://www.w3.org/1999/xlink" xml:space="preserve">
 <g visibility="visible" id="MasterSlide_1_標準">
  <desc>Master slide
  </desc>
  <rect fill="none" stroke="none" x="0" y="0" width="4000" height="4000"/>
 </g>
 <g visibility="visible" id="Slide_1_page2">
  <g>
   <path fill="rgb(255,255,255)" stroke="none" d="M 2000,3300 C 1761,3300 1557,3245 1350,3126 1143,3006 994,2857 874,2650 755,2443 700,2239 700,2000 700,1761 755,1557 874,1350 994,1143 1143,994 1350,874 1557,755 1761,700 2000,700 2239,700 2443,755 2650,874 2857,994 3006,1143 3126,1350 3245,1557 3300,1761 3300,2000 3300,2239 3245,2443 3126,2650 3006,2857 2857,3006 2650,3126 2443,3245 2239,3300 2000,3300 L 2000,3300 Z"/>
   <path fill="none" stroke="rgb(0,0,0)" id="Drawing_1_0" stroke-width="200" stroke-linejoin="round" d="M 2000,3300 C 1761,3300 1557,3245 1350,3126 1143,3006 994,2857 874,2650 755,2443 700,2239 700,2000 700,1761 755,1557 874,1350 994,1143 1143,994 1350,874 1557,755 1761,700 2000,700 2239,700 2443,755 2650,874 2857,994 3006,1143 3126,1350 3245,1557 3300,1761 3300,2000 3300,2239 3245,2443 3126,2650 3006,2857 2857,3006 2650,3126 2443,3245 2239,3300 2000,3300 L 2000,3300 Z"/>
  </g>
  <g>
   <path fill="none" stroke="rgb(0,0,0)" id="Drawing_2_0" stroke-width="200" stroke-linejoin="round" stroke-linecap="round" d="M 2000,1878 L 2000,2700"/>
  </g>
  <g>
   <path fill="rgb(0,0,0)" stroke="none" d="M 2000,1550 C 1972,1550 1949,1544 1925,1530 1901,1516 1884,1499 1870,1475 1856,1451 1850,1428 1850,1400 1850,1372 1856,1349 1870,1325 1884,1301 1901,1284 1925,1270 1949,1256 1972,1250 2000,1250 2028,1250 2051,1256 2075,1270 2099,1284 2116,1301 2130,1325 2144,1349 2150,1372 2150,1400 2150,1428 2144,1451 2130,1475 2116,1499 2099,1516 2075,1530 2051,1544 2028,1550 2000,1550 L 2000,1550 Z"/>
   <rect fill="none" stroke="none" x="1850" y="1250" width="301" height="301"/>
  </g>
 </g>
</svg>