<?xml version="1.0" encoding="UTF-8"?>

<svg version="1.2" baseProfile="tiny" width="40mm" height="40mm" viewBox="0 0 4000 4000" preserveAspectRatio="xMidYMid" fill-rule="evenodd" stroke-width="28.222" stroke-linejoin="round" xmlns="http://www.w3.org/2000/svg" xmlns:xlink="http://www.w3.org/1999/xlink" xml:space="preserve">
 <g visibility="visible" id="MasterSlide_1_標準">
  <desc>Master slide
  </desc>
  <rect fill="none" stroke="none" x="0" y="0" width="4000" height="4000"/>
 </g>
 <g visibility="visible" id="Slide_1_page5">
  <g>
   <path fill="rgb(255,255,255)" stroke="none" d="M 1850,3000 L 500,3000 500,700 3200,700 3200,3000 1850,3000 Z"/>
   <path fill="none" stroke="rgb(0,0,0)" id="Drawing_1_0" stroke-width="200" stroke-linejoin="round" d="M 1850,3000 L 500,3000 500,700 3200,700 3200,3000 1850,3000 Z"/>
  </g>
  <g>
   <path fill="rgb(255,255,255)" stroke="none" d="M 2150,3300 L 800,3300 800,1000 3500,1000 3500,3300 2150,3300 Z"/>
   <path fill="none" stroke="rgb(0,0,0)" id="Drawing_2_0" stroke-width="200" stroke-linejoin="round" d="M 2150,3300 L 800,3300 800,1000 3500,1000 3500,3300 2150,3300 Z"/>
  </g>
  <g>
   <path fill="none" stroke="rgb(0,0,0)" id="Drawing_3_0" stroke-width="200" stroke-linejoin="round" stroke-linecap="round" stroke-dasharray="200,457" d="M 1100,3000 L 3200,3000 3200,1200"/>
  </g>
 </g>
</svg>