<?xml version="1.0" encoding="UTF-8"?>

<svg version="1.2" baseProfile="tiny" width="40mm" height="40mm" viewBox="0 0 4000 4000" preserveAspectRatio="xMidYMid" fill-rule="evenodd" stroke-width="28.222" stroke-linejoin="round" xmlns="http://www.w3.org/2000/svg" xmlns:xlink="http://www.w3.org/1999/xlink" xml:space="preserve">
 <g visibility="visible" id="MasterSlide_1_標準">
  <desc>Master slide
  </desc>
  <rect fill="none" stroke="none" x="0" y="0" width="4000" height="4000"/>
 </g>
 <g visibility="visible" id="Slide_1_page25">
  <g>
   <path fill="rgb(255,255,255)" stroke="none" d="M 2000,3700 L 300,3700 300,300 3700,300 3700,3700 2000,3700 Z"/>
   <path fill="none" stroke="rgb(0,0,0)" id="Drawing_1_0" stroke-width="100" stroke-linejoin="round" d="M 2000,3700 L 300,3700 300,300 3700,300 3700,3700 2000,3700 Z"/>
  </g>
  <g>
   <path fill="rgb(102,102,102)" stroke="none" d="M 700,3200 L 700,2800 900,2800 900,2400 1100,2400 1100,2000 1300,2000 1300,1600 1500,1600 1500,1200 1700,1200 1700,800 2300,800 2300,1200 2500,1200 2500,1600 2700,1600 2700,2000 2900,2000 2900,2400 3100,2400 3100,2800 3300,2800 3300,3200 2900,3200 2900,2800 2700,2800 2700,2400 1300,2400 1300,2800 1100,2800 1100,3200 700,3200 Z"/>
   <rect fill="none" stroke="none" x="700" y="800" width="2601" height="2402"/>
  </g>
  <g>
   <path fill="rgb(255,255,255)" stroke="none" d="M 1700,2000 L 1700,1600 1900,1600 1900,1200 2100,1200 2100,1600 2300,1600 2300,2000 1700,2000 Z"/>
   <rect fill="none" stroke="none" x="1700" y="1200" width="601" height="801"/>
  </g>
 </g>
</svg>