<?xml version="1.0" encoding="UTF-8"?>

<svg version="1.2" baseProfile="tiny" width="40mm" height="40mm" viewBox="0 0 4000 4000" preserveAspectRatio="xMidYMid" fill-rule="evenodd" stroke-width="28.222" stroke-linejoin="round" xmlns="http://www.w3.org/2000/svg" xmlns:xlink="http://www.w3.org/1999/xlink" xml:space="preserve">
 <g visibility="visible" id="MasterSlide_1_標準">
  <desc>Master slide
  </desc>
  <rect fill="none" stroke="none" x="0" y="0" width="4000" height="4000"/>
 </g>
 <g visibility="visible" id="Slide_1_page14">
  <g>
   <path fill="rgb(255,255,255)" stroke="none" d="M 2000,3200 L 500,3200 500,800 3500,800 3500,3200 2000,3200 Z"/>
   <path fill="none" stroke="rgb(0,0,0)" id="Drawing_1_0" stroke-width="200" stroke-linejoin="round" d="M 2000,3200 L 500,3200 500,800 3500,800 3500,3200 2000,3200 Z"/>
  </g>
  <g>
   <path fill="none" stroke="rgb(0,0,0)" id="Drawing_2_0" stroke-width="200" stroke-linejoin="round" stroke-linecap="round" d="M 2100,2000 C 2200,2000 2200,2000 2300,2000 2300,2300 2200,2403 2100,2400 1900,2400 2100,2400 1900,2400 1800,2400 1700,2200 1700,2100 1700,2000 1700,1977 1700,1900 1700,1800 1800,1600 1900,1600 2100,1600 2300,1600 2300,1600"/>
  </g>
  <g>
   <path fill="none" stroke="rgb(0,0,0)" id="Drawing_3_0" stroke-width="200" stroke-linejoin="round" stroke-linecap="round" d="M 800,2400 L 800,1600 C 800,1600 933,1600 1200,1600 1300,1600 1400,1706 1400,1800 1400,1894 1300,2000 1200,2000 1033,2000 800,2000 800,2000"/>
  </g>
  <g>
   <path fill="none" stroke="rgb(0,0,0)" id="Drawing_4_0" stroke-width="200" stroke-linejoin="round" stroke-linecap="round" d="M 1400,2400 C 1400,2200 1300,2000 1200,2000"/>
  </g>
  <g>
   <path fill="none" stroke="rgb(0,0,0)" id="Drawing_5_0" stroke-width="200" stroke-linejoin="round" stroke-linecap="round" d="M 2600,2400 L 2600,1600 C 2600,1600 2733,1600 3000,1600 3100,1600 3200,1706 3200,1800 3200,1894 3100,2000 3000,2000 2833,2000 2600,2000 2600,2000"/>
  </g>
  <g>
   <path fill="none" stroke="rgb(0,0,0)" id="Drawing_6_0" stroke-width="200" stroke-linejoin="round" stroke-linecap="round" d="M 3000,2000 C 3100,2000 3200,2106 3200,2200 3200,2294 3100,2400 3000,2400 2833,2400 2600,2400 2600,2400"/>
  </g>
 </g>
</svg>