<?xml version="1.0" encoding="UTF-8"?>

<svg version="1.2" baseProfile="tiny" width="40mm" height="40mm" viewBox="0 0 4000 4000" preserveAspectRatio="xMidYMid" fill-rule="evenodd" stroke-width="28.222" stroke-linejoin="round" xmlns="http://www.w3.org/2000/svg" xmlns:xlink="http://www.w3.org/1999/xlink" xml:space="preserve">
 <g visibility="visible" id="MasterSlide_1_標準">
  <desc>Master slide
  </desc>
  <rect fill="none" stroke="none" x="0" y="0" width="4000" height="4000"/>
 </g>
 <g visibility="visible" id="Slide_1_page15">
  <g>
   <path fill="rgb(255,255,255)" stroke="none" d="M 2000,3500 L 500,3500 500,500 3500,500 3500,3500 2000,3500 Z"/>
   <path fill="none" stroke="rgb(0,0,0)" id="Drawing_1_0" stroke-width="200" stroke-linejoin="round" d="M 2000,3500 L 500,3500 500,500 3500,500 3500,3500 2000,3500 Z"/>
  </g>
  <g>
   <path fill="none" stroke="rgb(0,0,0)" id="Drawing_2_0" stroke-width="200" stroke-linejoin="round" stroke-linecap="round" d="M 1100,2900 C 1100,2900 1800,2900 2100,2900 2700,2900 3000,2600 3000,2000 3000,1400 2700,1100 2100,1100 1800,1100 1100,1100 1100,1100"/>
  </g>
  <g>
   <path fill="none" stroke="rgb(0,0,0)" id="Drawing_3_0" stroke-width="200" stroke-linejoin="round" stroke-linecap="round" d="M 1400,1400 L 1100,1100 1400,800"/>
  </g>
  <g>
   <path fill="none" stroke="rgb(0,0,0)" id="Drawing_4_0" stroke-width="200" stroke-linejoin="round" stroke-linecap="round" d="M 1400,3200 L 1100,2900 1400,2600"/>
  </g>
 </g>
</svg>