<?xml version="1.0" encoding="UTF-8"?>

<svg version="1.2" baseProfile="tiny" width="40mm" height="40mm" viewBox="0 0 4000 4000" preserveAspectRatio="xMidYMid" fill-rule="evenodd" stroke-width="28.222" stroke-linejoin="round" xmlns="http://www.w3.org/2000/svg" xmlns:xlink="http://www.w3.org/1999/xlink" xml:space="preserve">
 <g visibility="visible" id="MasterSlide_1_標準">
  <desc>Master slide
  </desc>
  <rect fill="none" stroke="none" x="0" y="0" width="4000" height="4000"/>
 </g>
 <g visibility="visible" id="Slide_1_page15">
  <g>
   <path fill="rgb(255,255,255)" stroke="none" d="M 2000,3200 L 500,3200 500,800 3500,800 3500,3200 2000,3200 Z"/>
   <path fill="none" stroke="rgb(0,0,0)" id="Drawing_1_0" stroke-width="200" stroke-linejoin="round" d="M 2000,3200 L 500,3200 500,800 3500,800 3500,3200 2000,3200 Z"/>
  </g>
  <g>
   <path fill="rgb(0,0,0)" stroke="none" d="M 2529,1725 C 2767,1648 2338,1825 2274,2005 2210,2185 2015,2391 1892,2338 1770,2285 1958,2155 1876,2005 1794,1854 1319,1698 1399,1622 1510,1514 1754,1841 1956,1851 2158,1861 2290,1802 2529,1725 Z"/>
   <path fill="none" stroke="rgb(0,0,0)" id="Drawing_2_0" stroke-width="100" stroke-linejoin="round" stroke-linecap="round" d="M 2529,1725 C 2767,1648 2338,1825 2274,2005 2210,2185 2015,2391 1892,2338 1770,2285 1958,2155 1876,2005 1794,1854 1319,1698 1399,1622 1510,1514 1754,1841 1956,1851 2158,1861 2290,1802 2529,1725 Z"/>
  </g>
  <g>
   <path fill="none" stroke="rgb(0,0,0)" id="Drawing_3_0" stroke-width="200" stroke-linejoin="round" d="M 1675,1023 L 2658,1208 2984,2185 2325,2977 1342,2792 1017,1815 1675,1023 Z"/>
   <rect fill="none" stroke="none" x="851" y="931" width="2300" height="2140"/>
  </g>
 </g>
</svg>