<?xml version="1.0" encoding="UTF-8"?>

<svg version="1.2" baseProfile="tiny" width="40mm" height="40mm" viewBox="0 0 4000 4000" preserveAspectRatio="xMidYMid" fill-rule="evenodd" stroke-width="28.222" stroke-linejoin="round" xmlns="http://www.w3.org/2000/svg" xmlns:xlink="http://www.w3.org/1999/xlink" xml:space="preserve">
 <g visibility="visible" id="MasterSlide_1_標準">
  <desc>Master slide
  </desc>
  <rect fill="none" stroke="none" x="0" y="0" width="4000" height="4000"/>
 </g>
 <g visibility="visible" id="Slide_1_page11">
  <g>
   <path fill="rgb(255,255,255)" stroke="none" d="M 2000,3200 L 500,3200 500,800 3500,800 3500,3200 2000,3200 Z"/>
   <path fill="none" stroke="rgb(0,0,0)" id="Drawing_1_0" stroke-width="200" stroke-linejoin="round" d="M 2000,3200 L 500,3200 500,800 3500,800 3500,3200 2000,3200 Z"/>
  </g>
  <g>
   <path fill="rgb(0,0,0)" stroke="none" d="M 3087,2409 C 3087,2409 2927,2049 2787,1909 2587,1709 2387,1609 2287,1709 2187,1809 2187,1709 2087,1609 1987,1509 1813,1457 1687,1709 1487,2109 1487,2409 1387,1709 1356,1488 1187,1509 1087,1709 1011,1868 967,2312 887,2309 807,2306 691,1857 487,1609 487,1609 787,2009 987,1609 1060,1424 1187,1309 1387,1409 1669,1550 2487,1409 2687,1109 2887,809 3105,2436 3087,2409 Z"/>
   <path fill="none" stroke="rgb(0,0,0)" id="Drawing_2_0" stroke-width="100" stroke-linejoin="round" stroke-linecap="round" d="M 3087,2409 C 3087,2409 2927,2049 2787,1909 2587,1709 2387,1609 2287,1709 2187,1809 2187,1709 2087,1609 1987,1509 1813,1457 1687,1709 1487,2109 1487,2409 1387,1709 1356,1488 1187,1509 1087,1709 1011,1868 967,2312 887,2309 807,2306 691,1857 487,1609 487,1609 787,2009 987,1609 1060,1424 1187,1309 1387,1409 1669,1550 2487,1409 2687,1109 2887,809 3105,2436 3087,2409 Z"/>
  </g>
  <g>
   <path fill="rgb(0,0,0)" stroke="none" d="M 3500,1600 C 3300,1900 3200,2700 3100,2900 3000,3100 2900,3000 2800,2900 2700,2800 2500,2600 2300,2800 2159,2941 2121,2733 1900,2700 1500,2639 1100,2800 900,2661 900,2661 1100,2700 1200,2600 1340,2460 1500,2500 1700,2600 1982,2741 2422,2368 2600,2500 3300,2900 3200,1900 3500,1600 Z"/>
   <path fill="none" stroke="rgb(0,0,0)" id="Drawing_3_0" stroke-width="100" stroke-linejoin="round" stroke-linecap="round" d="M 3500,1600 C 3300,1900 3200,2700 3100,2900 3000,3100 2900,3000 2800,2900 2700,2800 2500,2600 2300,2800 2159,2941 2121,2733 1900,2700 1500,2639 1100,2800 900,2661 900,2661 1100,2700 1200,2600 1340,2460 1500,2500 1700,2600 1982,2741 2422,2368 2600,2500 3300,2900 3200,1900 3500,1600 Z"/>
  </g>
 </g>
</svg>