<?xml version="1.0" encoding="UTF-8"?>
<svg version="1.2" baseProfile="tiny" width="200mm" height="200mm" viewBox="-125 -125 1250 1250" preserveAspectRatio="xMidYMid" fill-rule="evenodd" stroke-width="1" stroke-linejoin="round" xmlns="http://www.w3.org/2000/svg">
	<path stroke="rgb(99,10,240)" fill="rgb(99,10,240)" d="M 175.00 995.00 L 174.75 995.00 333.00 667.00 Z"></path>
	<path stroke="rgb(99,10,240)" fill="rgb(99,10,240)" d="M 174.75 995.00 L 174.50 995.00 333.00 667.00 Z"></path>
	<path stroke="rgb(99,11,240)" fill="rgb(99,11,240)" d="M 174.50 995.00 L 174.25 995.00 333.00 667.00 Z"></path>
	<path stroke="rgb(99,12,240)" fill="rgb(99,12,240)" d="M 174.25 995.00 L 174.00 995.00 333.00 667.00 Z"></path>
	<path stroke="rgb(99,12,240)" fill="rgb(99,12,240)" d="M 174.00 995.00 L 173.75 995.00 333.00 667.00 Z"></path>
	<path stroke="rgb(98,13,240)" fill="rgb(98,13,240)" d="M 173.75 995.00 L 173.50 995.00 333.00 667.00 Z"></path>
	<path stroke="rgb(98,14,240)" fill="rgb(98,14,240)" d="M 173.50 995.00 L 173.25 995.00 333.00 667.00 Z"></path>
	<path stroke="rgb(98,14,240)" fill="rgb(98,14,240)" d="M 173.25 995.00 L 173.00 995.00 333.00 667.00 Z"></path>
	<path stroke="rgb(98,15,240)" fill="rgb(98,15,240)" d="M 173.00 995.00 L 172.75 995.00 333.00 667.00 Z"></path>
	<path stroke="rgb(98,15,240)" fill="rgb(98,15,240)" d="M 172.75 995.00 L 172.50 995.00 333.00 667.00 Z"></path>
	<path stroke="rgb(98,16,240)" fill="rgb(98,16,240)" d="M 172.50 995.00 L 172.25 995.00 333.00 667.00 Z"></path>
	<path stroke="rgb(98,16,240)" fill="rgb(98,16,240)" d="M 172.25 995.00 L 172.00 995.00 333.00 667.00 Z"></path>
	<path stroke="rgb(98,17,240)" fill="rgb(98,17,240)" d="M 172.00 995.00 L 171.75 995.00 333.00 667.00 Z"></path>
	<path stroke="rgb(98,17,240)" fill="rgb(98,17,240)" d="M 171.75 995.00 L 171.50 995.00 333.00 667.00 Z"></path>
	<path stroke="rgb(98,18,240)" fill="rgb(98,18,240)" d="M 171.50 995.00 L 171.25 995.00 333.00 667.00 Z"></path>
	<path stroke="rgb(97,18,240)" fill="rgb(97,18,240)" d="M 171.25 995.00 L 171.00 995.00 333.00 667.00 Z"></path>
	<path stroke="rgb(97,19,240)" fill="rgb(97,19,240)" d="M 171.00 995.00 L 170.75 994.75 333.00 667.00 Z"></path>
	<path stroke="rgb(97,20,240)" fill="rgb(97,20,240)" d="M 170.75 994.75 L 170.50 994.50 333.00 667.00 Z"></path>
	<path stroke="rgb(97,20,240)" fill="rgb(97,20,240)" d="M 170.50 994.50 L 170.25 994.25 333.00 667.00 Z"></path>
	<path stroke="rgb(97,21,240)" fill="rgb(97,21,240)" d="M 170.25 994.25 L 170.00 994.00 333.00 667.00 Z"></path>
	<path stroke="rgb(97,22,240)" fill="rgb(97,22,240)" d="M 170.00 994.00 L 169.75 993.75 333.00 667.00 Z"></path>
	<path stroke="rgb(97,22,240)" fill="rgb(97,22,240)" d="M 169.75 993.75 L 169.50 993.50 333.00 667.00 Z"></path>
	<path stroke="rgb(96,23,240)" fill="rgb(96,23,240)" d="M 169.50 993.50 L 169.25 993.25 333.00 667.00 Z"></path>
	<path stroke="rgb(96,24,240)" fill="rgb(96,24,240)" d="M 169.25 993.25 L 169.00 993.00 333.00 667.00 Z"></path>
	<path stroke="rgb(96,25,240)" fill="rgb(96,25,240)" d="M 169.00 993.00 L 168.38 992.50 333.00 667.00 Z"></path>
	<path stroke="rgb(96,26,240)" fill="rgb(96,26,240)" d="M 168.38 992.50 L 167.75 992.00 333.00 667.00 Z"></path>
	<path stroke="rgb(95,27,240)" fill="rgb(95,27,240)" d="M 167.75 992.00 L 167.13 991.50 333.00 667.00 Z"></path>
	<path stroke="rgb(95,29,240)" fill="rgb(95,29,240)" d="M 167.13 991.50 L 166.50 991.00 333.00 667.00 Z"></path>
	<path stroke="rgb(94,30,240)" fill="rgb(94,30,240)" d="M 166.50 991.00 L 165.88 990.50 333.00 667.00 Z"></path>
	<path stroke="rgb(94,31,240)" fill="rgb(94,31,240)" d="M 165.88 990.50 L 165.25 990.00 333.00 667.00 Z"></path>
	<path stroke="rgb(94,32,240)" fill="rgb(94,32,240)" d="M 165.25 990.00 L 164.63 989.50 333.00 667.00 Z"></path>
	<path stroke="rgb(93,33,240)" fill="rgb(93,33,240)" d="M 164.63 989.50 L 164.00 989.00 333.00 667.00 Z"></path>
	<path stroke="rgb(93,35,240)" fill="rgb(93,35,240)" d="M 164.00 989.00 L 163.13 988.13 333.00 667.00 Z"></path>
	<path stroke="rgb(92,36,240)" fill="rgb(92,36,240)" d="M 163.13 988.13 L 162.25 987.25 333.00 667.00 Z"></path>
	<path stroke="rgb(92,38,240)" fill="rgb(92,38,240)" d="M 162.25 987.25 L 161.38 986.38 333.00 667.00 Z"></path>
	<path stroke="rgb(91,39,240)" fill="rgb(91,39,240)" d="M 161.38 986.38 L 160.50 985.50 333.00 667.00 Z"></path>
	<path stroke="rgb(90,40,240)" fill="rgb(90,40,240)" d="M 160.50 985.50 L 159.63 984.63 333.00 667.00 Z"></path>
	<path stroke="rgb(90,42,240)" fill="rgb(90,42,240)" d="M 159.63 984.63 L 158.75 983.75 333.00 667.00 Z"></path>
	<path stroke="rgb(89,43,240)" fill="rgb(89,43,240)" d="M 158.75 983.75 L 157.88 982.88 333.00 667.00 Z"></path>
	<path stroke="rgb(89,44,240)" fill="rgb(89,44,240)" d="M 157.88 982.88 L 157.00 982.00 333.00 667.00 Z"></path>
	<path stroke="rgb(88,45,241)" fill="rgb(88,45,241)" d="M 157.00 982.00 L 156.25 981.38 333.00 667.00 Z"></path>
	<path stroke="rgb(88,46,241)" fill="rgb(88,46,241)" d="M 156.25 981.38 L 155.50 980.75 333.00 667.00 Z"></path>
	<path stroke="rgb(87,47,241)" fill="rgb(87,47,241)" d="M 155.50 980.75 L 154.75 980.13 333.00 667.00 Z"></path>
	<path stroke="rgb(87,48,241)" fill="rgb(87,48,241)" d="M 154.75 980.13 L 154.00 979.50 333.00 667.00 Z"></path>
	<path stroke="rgb(86,49,241)" fill="rgb(86,49,241)" d="M 154.00 979.50 L 153.25 978.88 333.00 667.00 Z"></path>
	<path stroke="rgb(86,50,241)" fill="rgb(86,50,241)" d="M 153.25 978.88 L 152.50 978.25 333.00 667.00 Z"></path>
	<path stroke="rgb(85,51,241)" fill="rgb(85,51,241)" d="M 152.50 978.25 L 151.75 977.63 333.00 667.00 Z"></path>
	<path stroke="rgb(85,52,241)" fill="rgb(85,52,241)" d="M 151.75 977.63 L 151.00 977.00 333.00 667.00 Z"></path>
	<path stroke="rgb(84,53,241)" fill="rgb(84,53,241)" d="M 151.00 977.00 L 150.12 976.13 333.00 667.00 Z"></path>
	<path stroke="rgb(83,54,241)" fill="rgb(83,54,241)" d="M 150.12 976.13 L 149.25 975.25 333.00 667.00 Z"></path>
	<path stroke="rgb(83,55,241)" fill="rgb(83,55,241)" d="M 149.25 975.25 L 148.37 974.38 333.00 667.00 Z"></path>
	<path stroke="rgb(82,56,241)" fill="rgb(82,56,241)" d="M 148.37 974.38 L 147.50 973.50 333.00 667.00 Z"></path>
	<path stroke="rgb(81,57,241)" fill="rgb(81,57,241)" d="M 147.50 973.50 L 146.63 972.63 333.00 667.00 Z"></path>
	<path stroke="rgb(81,58,241)" fill="rgb(81,58,241)" d="M 146.63 972.63 L 145.75 971.75 333.00 667.00 Z"></path>
	<path stroke="rgb(80,59,241)" fill="rgb(80,59,241)" d="M 145.75 971.75 L 144.88 970.88 333.00 667.00 Z"></path>
	<path stroke="rgb(79,60,241)" fill="rgb(79,60,241)" d="M 144.88 970.88 L 144.00 970.00 333.00 667.00 Z"></path>
	<path stroke="rgb(78,61,241)" fill="rgb(78,61,241)" d="M 144.00 970.00 L 143.00 968.75 333.00 667.00 Z"></path>
	<path stroke="rgb(77,62,241)" fill="rgb(77,62,241)" d="M 143.00 968.75 L 142.00 967.50 333.00 667.00 Z"></path>
	<path stroke="rgb(77,63,241)" fill="rgb(77,63,241)" d="M 142.00 967.50 L 141.00 966.25 333.00 667.00 Z"></path>
	<path stroke="rgb(76,64,241)" fill="rgb(76,64,241)" d="M 141.00 966.25 L 140.00 965.00 333.00 667.00 Z"></path>
	<path stroke="rgb(75,65,241)" fill="rgb(75,65,241)" d="M 140.00 965.00 L 139.00 963.75 333.00 667.00 Z"></path>
	<path stroke="rgb(74,66,241)" fill="rgb(74,66,241)" d="M 139.00 963.75 L 138.00 962.50 333.00 667.00 Z"></path>
	<path stroke="rgb(73,67,241)" fill="rgb(73,67,241)" d="M 138.00 962.50 L 137.00 961.25 333.00 667.00 Z"></path>
	<path stroke="rgb(72,68,241)" fill="rgb(72,68,241)" d="M 137.00 961.25 L 136.00 960.00 333.00 667.00 Z"></path>
	<path stroke="rgb(70,70,241)" fill="rgb(70,70,241)" d="M 136.00 960.00 L 134.50 957.75 333.00 667.00 Z"></path>
	<path stroke="rgb(69,71,241)" fill="rgb(69,71,241)" d="M 134.50 957.75 L 133.00 955.50 333.00 667.00 Z"></path>
	<path stroke="rgb(67,73,241)" fill="rgb(67,73,241)" d="M 133.00 955.50 L 131.50 953.25 333.00 667.00 Z"></path>
	<path stroke="rgb(65,75,241)" fill="rgb(65,75,241)" d="M 131.50 953.25 L 130.00 951.00 333.00 667.00 Z"></path>
	<path stroke="rgb(63,76,241)" fill="rgb(63,76,241)" d="M 130.00 951.00 L 128.50 948.75 333.00 667.00 Z"></path>
	<path stroke="rgb(61,78,241)" fill="rgb(61,78,241)" d="M 128.50 948.75 L 127.00 946.50 333.00 667.00 Z"></path>
	<path stroke="rgb(59,79,241)" fill="rgb(59,79,241)" d="M 127.00 946.50 L 125.50 944.25 333.00 667.00 Z"></path>
	<path stroke="rgb(57,81,241)" fill="rgb(57,81,241)" d="M 125.50 944.25 L 124.00 942.00 333.00 667.00 Z"></path>
	<path stroke="rgb(55,83,241)" fill="rgb(55,83,241)" d="M 124.00 942.00 L 122.25 938.38 333.00 667.00 Z"></path>
	<path stroke="rgb(51,85,241)" fill="rgb(51,85,241)" d="M 122.25 938.38 L 120.50 934.75 333.00 667.00 Z"></path>
	<path stroke="rgb(48,87,241)" fill="rgb(48,87,241)" d="M 120.50 934.75 L 118.75 931.13 333.00 667.00 Z"></path>
	<path stroke="rgb(44,89,240)" fill="rgb(44,89,240)" d="M 118.75 931.13 L 117.00 927.50 333.00 667.00 Z"></path>
	<path stroke="rgb(39,91,240)" fill="rgb(39,91,240)" d="M 117.00 927.50 L 115.25 923.88 333.00 667.00 Z"></path>
	<path stroke="rgb(35,93,240)" fill="rgb(35,93,240)" d="M 115.25 923.88 L 113.50 920.25 333.00 667.00 Z"></path>
	<path stroke="rgb(29,95,240)" fill="rgb(29,95,240)" d="M 113.50 920.25 L 111.75 916.63 333.00 667.00 Z"></path>
	<path stroke="rgb(22,97,240)" fill="rgb(22,97,240)" d="M 111.75 916.63 L 110.00 913.00 333.00 667.00 Z"></path>
	<path stroke="rgb(9,99,240)" fill="rgb(9,99,240)" d="M 110.00 913.00 L 107.63 907.25 333.00 667.00 Z"></path>
	<path stroke="rgb(1,103,239)" fill="rgb(1,103,239)" d="M 107.63 907.25 L 105.25 901.50 333.00 667.00 Z"></path>
	<path stroke="rgb(1,107,238)" fill="rgb(1,107,238)" d="M 105.25 901.50 L 102.88 895.75 333.00 667.00 Z"></path>
	<path stroke="rgb(1,110,236)" fill="rgb(1,110,236)" d="M 102.88 895.75 L 100.50 890.00 333.00 667.00 Z"></path>
	<path stroke="rgb(1,114,235)" fill="rgb(1,114,235)" d="M 100.50 890.00 L 98.12 884.25 333.00 667.00 Z"></path>
	<path stroke="rgb(1,117,234)" fill="rgb(1,117,234)" d="M 98.12 884.25 L 95.75 878.50 333.00 667.00 Z"></path>
	<path stroke="rgb(1,120,233)" fill="rgb(1,120,233)" d="M 95.75 878.50 L 93.38 872.75 333.00 667.00 Z"></path>
	<path stroke="rgb(1,123,231)" fill="rgb(1,123,231)" d="M 93.38 872.75 L 91.00 867.00 333.00 667.00 Z"></path>
	<path stroke="rgb(1,126,230)" fill="rgb(1,126,230)" d="M 91.00 867.00 L 88.25 858.50 333.00 667.00 Z"></path>
	<path stroke="rgb(1,130,228)" fill="rgb(1,130,228)" d="M 88.25 858.50 L 85.50 850.00 333.00 667.00 Z"></path>
	<path stroke="rgb(1,133,227)" fill="rgb(1,133,227)" d="M 85.50 850.00 L 82.75 841.50 333.00 667.00 Z"></path>
	<path stroke="rgb(1,136,225)" fill="rgb(1,136,225)" d="M 82.75 841.50 L 80.00 833.00 333.00 667.00 Z"></path>
	<path stroke="rgb(1,139,223)" fill="rgb(1,139,223)" d="M 80.00 833.00 L 77.25 824.50 333.00 667.00 Z"></path>
	<path stroke="rgb(1,142,222)" fill="rgb(1,142,222)" d="M 77.25 824.50 L 74.50 816.00 333.00 667.00 Z"></path>
	<path stroke="rgb(1,145,220)" fill="rgb(1,145,220)" d="M 74.50 816.00 L 71.75 807.50 333.00 667.00 Z"></path>
	<path stroke="rgb(1,147,219)" fill="rgb(1,147,219)" d="M 71.75 807.50 L 69.00 799.00 333.00 667.00 Z"></path>
	<path stroke="rgb(1,150,217)" fill="rgb(1,150,217)" d="M 69.00 799.00 L 66.00 787.25 333.00 667.00 Z"></path>
	<path stroke="rgb(1,153,215)" fill="rgb(1,153,215)" d="M 66.00 787.25 L 63.00 775.50 333.00 667.00 Z"></path>
	<path stroke="rgb(1,156,213)" fill="rgb(1,156,213)" d="M 63.00 775.50 L 60.00 763.75 333.00 667.00 Z"></path>
	<path stroke="rgb(1,159,211)" fill="rgb(1,159,211)" d="M 60.00 763.75 L 57.00 752.00 333.00 667.00 Z"></path>
	<path stroke="rgb(1,162,209)" fill="rgb(1,162,209)" d="M 57.00 752.00 L 54.00 740.25 333.00 667.00 Z"></path>
	<path stroke="rgb(1,164,208)" fill="rgb(1,164,208)" d="M 54.00 740.25 L 51.00 728.50 333.00 667.00 Z"></path>
	<path stroke="rgb(1,166,206)" fill="rgb(1,166,206)" d="M 51.00 728.50 L 48.00 716.75 333.00 667.00 Z"></path>
	<path stroke="rgb(1,169,204)" fill="rgb(1,169,204)" d="M 48.00 716.75 L 45.00 705.00 333.00 667.00 Z"></path>
	<path stroke="rgb(1,171,203)" fill="rgb(1,171,203)" d="M 45.00 705.00 L 43.38 696.38 333.00 667.00 Z"></path>
	<path stroke="rgb(1,172,201)" fill="rgb(1,172,201)" d="M 43.38 696.38 L 41.75 687.75 333.00 667.00 Z"></path>
	<path stroke="rgb(1,174,200)" fill="rgb(1,174,200)" d="M 41.75 687.75 L 40.12 679.13 333.00 667.00 Z"></path>
	<path stroke="rgb(1,175,199)" fill="rgb(1,175,199)" d="M 40.12 679.13 L 38.50 670.50 333.00 667.00 Z"></path>
	<path stroke="rgb(1,176,198)" fill="rgb(1,176,198)" d="M 38.50 670.50 L 36.88 661.88 333.00 667.00 Z"></path>
	<path stroke="rgb(1,178,197)" fill="rgb(1,178,197)" d="M 36.88 661.88 L 35.25 653.25 333.00 667.00 Z"></path>
	<path stroke="rgb(1,179,195)" fill="rgb(1,179,195)" d="M 35.25 653.25 L 33.63 644.63 333.00 667.00 Z"></path>
	<path stroke="rgb(1,180,194)" fill="rgb(1,180,194)" d="M 33.63 644.63 L 32.00 636.00 333.00 667.00 Z"></path>
	<path stroke="rgb(1,181,193)" fill="rgb(1,181,193)" d="M 32.00 636.00 L 30.88 629.88 333.00 667.00 Z"></path>
	<path stroke="rgb(1,182,192)" fill="rgb(1,182,192)" d="M 30.88 629.88 L 29.75 623.75 333.00 667.00 Z"></path>
	<path stroke="rgb(1,183,192)" fill="rgb(1,183,192)" d="M 29.75 623.75 L 28.63 617.63 333.00 667.00 Z"></path>
	<path stroke="rgb(1,184,191)" fill="rgb(1,184,191)" d="M 28.63 617.63 L 27.50 611.50 333.00 667.00 Z"></path>
	<path stroke="rgb(1,185,190)" fill="rgb(1,185,190)" d="M 27.50 611.50 L 26.38 605.38 333.00 667.00 Z"></path>
	<path stroke="rgb(1,186,189)" fill="rgb(1,186,189)" d="M 26.38 605.38 L 25.25 599.25 333.00 667.00 Z"></path>
	<path stroke="rgb(1,187,188)" fill="rgb(1,187,188)" d="M 25.25 599.25 L 24.13 593.13 333.00 667.00 Z"></path>
	<path stroke="rgb(1,187,188)" fill="rgb(1,187,188)" d="M 24.13 593.13 L 23.00 587.00 333.00 667.00 Z"></path>
	<path stroke="rgb(1,188,187)" fill="rgb(1,188,187)" d="M 23.00 587.00 L 21.75 577.63 333.00 667.00 Z"></path>
	<path stroke="rgb(1,189,185)" fill="rgb(1,189,185)" d="M 21.75 577.63 L 20.50 568.25 333.00 667.00 Z"></path>
	<path stroke="rgb(1,191,184)" fill="rgb(1,191,184)" d="M 20.50 568.25 L 19.25 558.88 333.00 667.00 Z"></path>
	<path stroke="rgb(1,192,183)" fill="rgb(1,192,183)" d="M 19.25 558.88 L 18.00 549.50 333.00 667.00 Z"></path>
	<path stroke="rgb(1,193,182)" fill="rgb(1,193,182)" d="M 18.00 549.50 L 16.75 540.13 333.00 667.00 Z"></path>
	<path stroke="rgb(1,194,181)" fill="rgb(1,194,181)" d="M 16.75 540.13 L 15.50 530.75 333.00 667.00 Z"></path>
	<path stroke="rgb(1,195,180)" fill="rgb(1,195,180)" d="M 15.50 530.75 L 14.25 521.38 333.00 667.00 Z"></path>
	<path stroke="rgb(1,196,178)" fill="rgb(1,196,178)" d="M 14.25 521.38 L 13.00 512.00 333.00 667.00 Z"></path>
	<path stroke="rgb(1,197,177)" fill="rgb(1,197,177)" d="M 13.00 512.00 L 12.38 505.75 333.00 667.00 Z"></path>
	<path stroke="rgb(1,198,177)" fill="rgb(1,198,177)" d="M 12.38 505.75 L 11.75 499.50 333.00 667.00 Z"></path>
	<path stroke="rgb(1,198,176)" fill="rgb(1,198,176)" d="M 11.75 499.50 L 11.13 493.25 333.00 667.00 Z"></path>
	<path stroke="rgb(1,199,175)" fill="rgb(1,199,175)" d="M 11.13 493.25 L 10.50 487.00 333.00 667.00 Z"></path>
	<path stroke="rgb(1,200,174)" fill="rgb(1,200,174)" d="M 10.50 487.00 L 9.88 480.75 333.00 667.00 Z"></path>
	<path stroke="rgb(1,200,174)" fill="rgb(1,200,174)" d="M 9.88 480.75 L 9.25 474.50 333.00 667.00 Z"></path>
	<path stroke="rgb(1,201,173)" fill="rgb(1,201,173)" d="M 9.25 474.50 L 8.63 468.25 333.00 667.00 Z"></path>
	<path stroke="rgb(1,201,172)" fill="rgb(1,201,172)" d="M 8.63 468.25 L 8.00 462.00 333.00 667.00 Z"></path>
	<path stroke="rgb(1,202,171)" fill="rgb(1,202,171)" d="M 8.00 462.00 L 7.50 447.38 333.00 667.00 Z"></path>
	<path stroke="rgb(1,204,169)" fill="rgb(1,204,169)" d="M 7.50 447.38 L 7.00 432.75 333.00 667.00 Z"></path>
	<path stroke="rgb(1,205,167)" fill="rgb(1,205,167)" d="M 7.00 432.75 L 6.50 418.13 333.00 667.00 Z"></path>
	<path stroke="rgb(1,207,165)" fill="rgb(1,207,165)" d="M 6.50 418.13 L 6.00 403.50 333.00 667.00 Z"></path>
	<path stroke="rgb(1,208,163)" fill="rgb(1,208,163)" d="M 6.00 403.50 L 5.50 388.88 333.00 667.00 Z"></path>
	<path stroke="rgb(1,209,161)" fill="rgb(1,209,161)" d="M 5.50 388.88 L 5.00 374.25 333.00 667.00 Z"></path>
	<path stroke="rgb(1,211,160)" fill="rgb(1,211,160)" d="M 5.00 374.25 L 4.50 359.63 333.00 667.00 Z"></path>
	<path stroke="rgb(1,212,158)" fill="rgb(1,212,158)" d="M 4.50 359.63 L 4.00 345.00 333.00 667.00 Z"></path>
	<path stroke="rgb(1,213,156)" fill="rgb(1,213,156)" d="M 4.00 345.00 L 4.50 337.50 333.00 667.00 Z"></path>
	<path stroke="rgb(1,214,155)" fill="rgb(1,214,155)" d="M 4.50 337.50 L 5.00 330.00 333.00 667.00 Z"></path>
	<path stroke="rgb(1,214,154)" fill="rgb(1,214,154)" d="M 5.00 330.00 L 5.50 322.50 333.00 667.00 Z"></path>
	<path stroke="rgb(1,215,153)" fill="rgb(1,215,153)" d="M 5.50 322.50 L 6.00 315.00 333.00 667.00 Z"></path>
	<path stroke="rgb(1,216,152)" fill="rgb(1,216,152)" d="M 6.00 315.00 L 6.50 307.50 333.00 667.00 Z"></path>
	<path stroke="rgb(1,216,151)" fill="rgb(1,216,151)" d="M 6.50 307.50 L 7.00 300.00 333.00 667.00 Z"></path>
	<path stroke="rgb(1,217,150)" fill="rgb(1,217,150)" d="M 7.00 300.00 L 7.50 292.50 333.00 667.00 Z"></path>
	<path stroke="rgb(1,218,149)" fill="rgb(1,218,149)" d="M 7.50 292.50 L 8.00 285.00 333.00 667.00 Z"></path>
	<path stroke="rgb(1,218,148)" fill="rgb(1,218,148)" d="M 8.00 285.00 L 8.75 280.63 333.00 667.00 Z"></path>
	<path stroke="rgb(1,219,147)" fill="rgb(1,219,147)" d="M 8.75 280.63 L 9.50 276.25 333.00 667.00 Z"></path>
	<path stroke="rgb(1,219,147)" fill="rgb(1,219,147)" d="M 9.50 276.25 L 10.25 271.88 333.00 667.00 Z"></path>
	<path stroke="rgb(1,220,146)" fill="rgb(1,220,146)" d="M 10.25 271.88 L 11.00 267.50 333.00 667.00 Z"></path>
	<path stroke="rgb(1,220,145)" fill="rgb(1,220,145)" d="M 11.00 267.50 L 11.75 263.13 333.00 667.00 Z"></path>
	<path stroke="rgb(1,220,145)" fill="rgb(1,220,145)" d="M 11.75 263.13 L 12.50 258.75 333.00 667.00 Z"></path>
	<path stroke="rgb(1,221,144)" fill="rgb(1,221,144)" d="M 12.50 258.75 L 13.25 254.38 333.00 667.00 Z"></path>
	<path stroke="rgb(1,221,143)" fill="rgb(1,221,143)" d="M 13.25 254.38 L 14.00 250.00 333.00 667.00 Z"></path>
	<path stroke="rgb(1,222,142)" fill="rgb(1,222,142)" d="M 14.00 250.00 L 15.63 244.75 333.00 667.00 Z"></path>
	<path stroke="rgb(1,222,141)" fill="rgb(1,222,141)" d="M 15.63 244.75 L 17.25 239.50 333.00 667.00 Z"></path>
	<path stroke="rgb(1,223,140)" fill="rgb(1,223,140)" d="M 17.25 239.50 L 18.88 234.25 333.00 667.00 Z"></path>
	<path stroke="rgb(1,223,139)" fill="rgb(1,223,139)" d="M 18.88 234.25 L 20.50 229.00 333.00 667.00 Z"></path>
	<path stroke="rgb(1,224,138)" fill="rgb(1,224,138)" d="M 20.50 229.00 L 22.13 223.75 333.00 667.00 Z"></path>
	<path stroke="rgb(1,224,137)" fill="rgb(1,224,137)" d="M 22.13 223.75 L 23.75 218.50 333.00 667.00 Z"></path>
	<path stroke="rgb(1,225,136)" fill="rgb(1,225,136)" d="M 23.75 218.50 L 25.38 213.25 333.00 667.00 Z"></path>
	<path stroke="rgb(1,226,135)" fill="rgb(1,226,135)" d="M 25.38 213.25 L 27.00 208.00 333.00 667.00 Z"></path>
	<path stroke="rgb(1,226,134)" fill="rgb(1,226,134)" d="M 27.00 208.00 L 28.50 205.50 333.00 667.00 Z"></path>
	<path stroke="rgb(1,226,134)" fill="rgb(1,226,134)" d="M 28.50 205.50 L 30.00 203.00 333.00 667.00 Z"></path>
	<path stroke="rgb(1,227,133)" fill="rgb(1,227,133)" d="M 30.00 203.00 L 31.50 200.50 333.00 667.00 Z"></path>
	<path stroke="rgb(1,227,132)" fill="rgb(1,227,132)" d="M 31.50 200.50 L 33.00 198.00 333.00 667.00 Z"></path>
	<path stroke="rgb(1,227,132)" fill="rgb(1,227,132)" d="M 33.00 198.00 L 34.50 195.50 333.00 667.00 Z"></path>
	<path stroke="rgb(1,228,131)" fill="rgb(1,228,131)" d="M 34.50 195.50 L 36.00 193.00 333.00 667.00 Z"></path>
	<path stroke="rgb(1,228,130)" fill="rgb(1,228,130)" d="M 36.00 193.00 L 37.50 190.50 333.00 667.00 Z"></path>
	<path stroke="rgb(1,228,129)" fill="rgb(1,228,129)" d="M 37.50 190.50 L 39.00 188.00 333.00 667.00 Z"></path>
	<path stroke="rgb(1,229,129)" fill="rgb(1,229,129)" d="M 39.00 188.00 L 39.75 187.13 333.00 667.00 Z"></path>
	<path stroke="rgb(1,229,129)" fill="rgb(1,229,129)" d="M 39.75 187.13 L 40.50 186.25 333.00 667.00 Z"></path>
	<path stroke="rgb(1,229,128)" fill="rgb(1,229,128)" d="M 40.50 186.25 L 41.25 185.38 333.00 667.00 Z"></path>
	<path stroke="rgb(1,229,128)" fill="rgb(1,229,128)" d="M 41.25 185.38 L 42.00 184.50 333.00 667.00 Z"></path>
	<path stroke="rgb(1,229,128)" fill="rgb(1,229,128)" d="M 42.00 184.50 L 42.75 183.63 333.00 667.00 Z"></path>
	<path stroke="rgb(1,229,128)" fill="rgb(1,229,128)" d="M 42.75 183.63 L 43.50 182.75 333.00 667.00 Z"></path>
	<path stroke="rgb(1,229,127)" fill="rgb(1,229,127)" d="M 43.50 182.75 L 44.25 181.88 333.00 667.00 Z"></path>
	<path stroke="rgb(1,230,127)" fill="rgb(1,230,127)" d="M 44.25 181.88 L 45.00 181.00 333.00 667.00 Z"></path>
	<path stroke="rgb(1,230,126)" fill="rgb(1,230,126)" d="M 45.00 181.00 L 46.75 179.75 333.00 667.00 Z"></path>
	<path stroke="rgb(1,230,126)" fill="rgb(1,230,126)" d="M 46.75 179.75 L 48.50 178.50 333.00 667.00 Z"></path>
	<path stroke="rgb(1,230,125)" fill="rgb(1,230,125)" d="M 48.50 178.50 L 50.25 177.25 333.00 667.00 Z"></path>
	<path stroke="rgb(1,231,125)" fill="rgb(1,231,125)" d="M 50.25 177.25 L 52.00 176.00 333.00 667.00 Z"></path>
	<path stroke="rgb(1,231,124)" fill="rgb(1,231,124)" d="M 52.00 176.00 L 53.75 174.75 333.00 667.00 Z"></path>
	<path stroke="rgb(1,231,123)" fill="rgb(1,231,123)" d="M 53.75 174.75 L 55.50 173.50 333.00 667.00 Z"></path>
	<path stroke="rgb(1,231,123)" fill="rgb(1,231,123)" d="M 55.50 173.50 L 57.25 172.25 333.00 667.00 Z"></path>
	<path stroke="rgb(1,232,122)" fill="rgb(1,232,122)" d="M 57.25 172.25 L 59.00 171.00 333.00 667.00 Z"></path>
	<path stroke="rgb(1,232,122)" fill="rgb(1,232,122)" d="M 59.00 171.00 L 60.88 170.38 333.00 667.00 Z"></path>
	<path stroke="rgb(1,232,121)" fill="rgb(1,232,121)" d="M 60.88 170.38 L 62.75 169.75 333.00 667.00 Z"></path>
	<path stroke="rgb(1,232,120)" fill="rgb(1,232,120)" d="M 62.75 169.75 L 64.62 169.13 333.00 667.00 Z"></path>
	<path stroke="rgb(1,233,120)" fill="rgb(1,233,120)" d="M 64.62 169.13 L 66.50 168.50 333.00 667.00 Z"></path>
	<path stroke="rgb(1,233,119)" fill="rgb(1,233,119)" d="M 66.50 168.50 L 68.37 167.88 333.00 667.00 Z"></path>
	<path stroke="rgb(1,233,119)" fill="rgb(1,233,119)" d="M 68.37 167.88 L 70.25 167.25 333.00 667.00 Z"></path>
	<path stroke="rgb(1,233,118)" fill="rgb(1,233,118)" d="M 70.25 167.25 L 72.13 166.63 333.00 667.00 Z"></path>
	<path stroke="rgb(1,234,117)" fill="rgb(1,234,117)" d="M 72.13 166.63 L 74.00 166.00 333.00 667.00 Z"></path>
	<path stroke="rgb(1,234,117)" fill="rgb(1,234,117)" d="M 74.00 166.00 L 75.00 166.00 333.00 667.00 Z"></path>
	<path stroke="rgb(1,234,117)" fill="rgb(1,234,117)" d="M 75.00 166.00 L 76.00 166.00 333.00 667.00 Z"></path>
	<path stroke="rgb(1,234,116)" fill="rgb(1,234,116)" d="M 76.00 166.00 L 77.00 166.00 333.00 667.00 Z"></path>
	<path stroke="rgb(1,234,116)" fill="rgb(1,234,116)" d="M 77.00 166.00 L 78.00 166.00 333.00 667.00 Z"></path>
	<path stroke="rgb(1,234,116)" fill="rgb(1,234,116)" d="M 78.00 166.00 L 79.00 166.00 333.00 667.00 Z"></path>
	<path stroke="rgb(1,235,115)" fill="rgb(1,235,115)" d="M 79.00 166.00 L 80.00 166.00 333.00 667.00 Z"></path>
	<path stroke="rgb(1,235,115)" fill="rgb(1,235,115)" d="M 80.00 166.00 L 81.00 166.00 333.00 667.00 Z"></path>
	<path stroke="rgb(1,235,115)" fill="rgb(1,235,115)" d="M 81.00 166.00 L 82.00 166.00 333.00 667.00 Z"></path>
	<path stroke="rgb(1,235,114)" fill="rgb(1,235,114)" d="M 82.00 166.00 L 84.00 166.25 333.00 667.00 Z"></path>
	<path stroke="rgb(1,235,114)" fill="rgb(1,235,114)" d="M 84.00 166.25 L 86.00 166.50 333.00 667.00 Z"></path>
	<path stroke="rgb(1,235,113)" fill="rgb(1,235,113)" d="M 86.00 166.50 L 88.00 166.75 333.00 667.00 Z"></path>
	<path stroke="rgb(1,236,113)" fill="rgb(1,236,113)" d="M 88.00 166.75 L 90.00 167.00 333.00 667.00 Z"></path>
	<path stroke="rgb(1,236,112)" fill="rgb(1,236,112)" d="M 90.00 167.00 L 92.00 167.25 333.00 667.00 Z"></path>
	<path stroke="rgb(1,236,112)" fill="rgb(1,236,112)" d="M 92.00 167.25 L 94.00 167.50 333.00 667.00 Z"></path>
	<path stroke="rgb(1,236,111)" fill="rgb(1,236,111)" d="M 94.00 167.50 L 96.00 167.75 333.00 667.00 Z"></path>
	<path stroke="rgb(1,236,110)" fill="rgb(1,236,110)" d="M 96.00 167.75 L 98.00 168.00 333.00 667.00 Z"></path>
	<path stroke="rgb(1,237,110)" fill="rgb(1,237,110)" d="M 98.00 168.00 L 100.00 168.75 333.00 667.00 Z"></path>
	<path stroke="rgb(1,237,109)" fill="rgb(1,237,109)" d="M 100.00 168.75 L 102.00 169.50 333.00 667.00 Z"></path>
	<path stroke="rgb(1,237,109)" fill="rgb(1,237,109)" d="M 102.00 169.50 L 104.00 170.25 333.00 667.00 Z"></path>
	<path stroke="rgb(1,237,108)" fill="rgb(1,237,108)" d="M 104.00 170.25 L 106.00 171.00 333.00 667.00 Z"></path>
	<path stroke="rgb(1,238,108)" fill="rgb(1,238,108)" d="M 106.00 171.00 L 108.00 171.75 333.00 667.00 Z"></path>
	<path stroke="rgb(1,238,107)" fill="rgb(1,238,107)" d="M 108.00 171.75 L 110.00 172.50 333.00 667.00 Z"></path>
	<path stroke="rgb(1,238,106)" fill="rgb(1,238,106)" d="M 110.00 172.50 L 112.00 173.25 333.00 667.00 Z"></path>
	<path stroke="rgb(1,238,106)" fill="rgb(1,238,106)" d="M 112.00 173.25 L 114.00 174.00 333.00 667.00 Z"></path>
	<path stroke="rgb(1,238,105)" fill="rgb(1,238,105)" d="M 114.00 174.00 L 117.13 175.38 333.00 667.00 Z"></path>
	<path stroke="rgb(1,239,104)" fill="rgb(1,239,104)" d="M 117.13 175.38 L 120.25 176.75 333.00 667.00 Z"></path>
	<path stroke="rgb(1,239,103)" fill="rgb(1,239,103)" d="M 120.25 176.75 L 123.38 178.13 333.00 667.00 Z"></path>
	<path stroke="rgb(1,239,102)" fill="rgb(1,239,102)" d="M 123.38 178.13 L 126.50 179.50 333.00 667.00 Z"></path>
	<path stroke="rgb(1,240,101)" fill="rgb(1,240,101)" d="M 126.50 179.50 L 129.63 180.88 333.00 667.00 Z"></path>
	<path stroke="rgb(1,240,100)" fill="rgb(1,240,100)" d="M 129.63 180.88 L 132.75 182.25 333.00 667.00 Z"></path>
	<path stroke="rgb(5,240,99)" fill="rgb(5,240,99)" d="M 132.75 182.25 L 135.88 183.63 333.00 667.00 Z"></path>
	<path stroke="rgb(11,240,99)" fill="rgb(11,240,99)" d="M 135.88 183.63 L 139.00 185.00 333.00 667.00 Z"></path>
	<path stroke="rgb(14,240,98)" fill="rgb(14,240,98)" d="M 139.00 185.00 L 141.00 186.13 333.00 667.00 Z"></path>
	<path stroke="rgb(17,240,98)" fill="rgb(17,240,98)" d="M 141.00 186.13 L 143.00 187.25 333.00 667.00 Z"></path>
	<path stroke="rgb(19,240,97)" fill="rgb(19,240,97)" d="M 143.00 187.25 L 145.00 188.38 333.00 667.00 Z"></path>
	<path stroke="rgb(21,240,97)" fill="rgb(21,240,97)" d="M 145.00 188.38 L 147.00 189.50 333.00 667.00 Z"></path>
	<path stroke="rgb(23,240,96)" fill="rgb(23,240,96)" d="M 147.00 189.50 L 149.00 190.63 333.00 667.00 Z"></path>
	<path stroke="rgb(25,240,96)" fill="rgb(25,240,96)" d="M 149.00 190.63 L 151.00 191.75 333.00 667.00 Z"></path>
	<path stroke="rgb(26,240,96)" fill="rgb(26,240,96)" d="M 151.00 191.75 L 153.00 192.87 333.00 667.00 Z"></path>
	<path stroke="rgb(28,240,95)" fill="rgb(28,240,95)" d="M 153.00 192.87 L 155.00 194.00 333.00 667.00 Z"></path>
	<path stroke="rgb(30,240,94)" fill="rgb(30,240,94)" d="M 155.00 194.00 L 159.75 197.00 333.00 667.00 Z"></path>
	<path stroke="rgb(33,240,93)" fill="rgb(33,240,93)" d="M 159.75 197.00 L 164.50 200.00 333.00 667.00 Z"></path>
	<path stroke="rgb(36,240,92)" fill="rgb(36,240,92)" d="M 164.50 200.00 L 169.25 203.00 333.00 667.00 Z"></path>
	<path stroke="rgb(39,240,91)" fill="rgb(39,240,91)" d="M 169.25 203.00 L 174.00 206.00 333.00 667.00 Z"></path>
	<path stroke="rgb(42,240,90)" fill="rgb(42,240,90)" d="M 174.00 206.00 L 178.75 209.00 333.00 667.00 Z"></path>
	<path stroke="rgb(44,240,89)" fill="rgb(44,240,89)" d="M 178.75 209.00 L 183.50 212.00 333.00 667.00 Z"></path>
	<path stroke="rgb(47,241,87)" fill="rgb(47,241,87)" d="M 183.50 212.00 L 188.25 215.00 333.00 667.00 Z"></path>
	<path stroke="rgb(49,241,86)" fill="rgb(49,241,86)" d="M 188.25 215.00 L 193.00 218.00 333.00 667.00 Z"></path>
	<path stroke="rgb(51,241,85)" fill="rgb(51,241,85)" d="M 193.00 218.00 L 197.63 221.50 333.00 667.00 Z"></path>
	<path stroke="rgb(53,241,84)" fill="rgb(53,241,84)" d="M 197.63 221.50 L 202.25 225.00 333.00 667.00 Z"></path>
	<path stroke="rgb(55,241,82)" fill="rgb(55,241,82)" d="M 202.25 225.00 L 206.88 228.50 333.00 667.00 Z"></path>
	<path stroke="rgb(57,241,81)" fill="rgb(57,241,81)" d="M 206.88 228.50 L 211.50 232.00 333.00 667.00 Z"></path>
	<path stroke="rgb(59,241,80)" fill="rgb(59,241,80)" d="M 211.50 232.00 L 216.13 235.50 333.00 667.00 Z"></path>
	<path stroke="rgb(61,241,78)" fill="rgb(61,241,78)" d="M 216.13 235.50 L 220.75 239.00 333.00 667.00 Z"></path>
	<path stroke="rgb(63,241,77)" fill="rgb(63,241,77)" d="M 220.75 239.00 L 225.38 242.50 333.00 667.00 Z"></path>
	<path stroke="rgb(65,241,75)" fill="rgb(65,241,75)" d="M 225.38 242.50 L 230.00 246.00 333.00 667.00 Z"></path>
	<path stroke="rgb(67,241,73)" fill="rgb(67,241,73)" d="M 230.00 246.00 L 234.50 249.75 333.00 667.00 Z"></path>
	<path stroke="rgb(68,241,72)" fill="rgb(68,241,72)" d="M 234.50 249.75 L 239.00 253.50 333.00 667.00 Z"></path>
	<path stroke="rgb(70,241,70)" fill="rgb(70,241,70)" d="M 239.00 253.50 L 243.50 257.25 333.00 667.00 Z"></path>
	<path stroke="rgb(72,241,68)" fill="rgb(72,241,68)" d="M 243.50 257.25 L 248.00 261.00 333.00 667.00 Z"></path>
	<path stroke="rgb(74,241,66)" fill="rgb(74,241,66)" d="M 248.00 261.00 L 252.50 264.75 333.00 667.00 Z"></path>
	<path stroke="rgb(75,241,64)" fill="rgb(75,241,64)" d="M 252.50 264.75 L 257.00 268.50 333.00 667.00 Z"></path>
	<path stroke="rgb(77,241,62)" fill="rgb(77,241,62)" d="M 257.00 268.50 L 261.50 272.25 333.00 667.00 Z"></path>
	<path stroke="rgb(79,241,60)" fill="rgb(79,241,60)" d="M 261.50 272.25 L 266.00 276.00 333.00 667.00 Z"></path>
	<path stroke="rgb(81,241,58)" fill="rgb(81,241,58)" d="M 266.00 276.00 L 270.50 280.00 333.00 667.00 Z"></path>
	<path stroke="rgb(82,241,55)" fill="rgb(82,241,55)" d="M 270.50 280.00 L 275.00 284.00 333.00 667.00 Z"></path>
	<path stroke="rgb(84,241,53)" fill="rgb(84,241,53)" d="M 275.00 284.00 L 279.50 288.00 333.00 667.00 Z"></path>
	<path stroke="rgb(86,241,50)" fill="rgb(86,241,50)" d="M 279.50 288.00 L 284.00 292.00 333.00 667.00 Z"></path>
	<path stroke="rgb(87,241,47)" fill="rgb(87,241,47)" d="M 284.00 292.00 L 288.50 296.00 333.00 667.00 Z"></path>
	<path stroke="rgb(89,240,43)" fill="rgb(89,240,43)" d="M 288.50 296.00 L 293.00 300.00 333.00 667.00 Z"></path>
	<path stroke="rgb(91,240,39)" fill="rgb(91,240,39)" d="M 293.00 300.00 L 297.50 304.00 333.00 667.00 Z"></path>
	<path stroke="rgb(93,240,35)" fill="rgb(93,240,35)" d="M 297.50 304.00 L 302.00 308.00 333.00 667.00 Z"></path>
	<path stroke="rgb(95,240,30)" fill="rgb(95,240,30)" d="M 302.00 308.00 L 306.38 312.13 333.00 667.00 Z"></path>
	<path stroke="rgb(96,240,23)" fill="rgb(96,240,23)" d="M 306.38 312.13 L 310.75 316.25 333.00 667.00 Z"></path>
	<path stroke="rgb(98,240,15)" fill="rgb(98,240,15)" d="M 310.75 316.25 L 315.13 320.38 333.00 667.00 Z"></path>
	<path stroke="rgb(100,240,2)" fill="rgb(100,240,2)" d="M 315.13 320.38 L 319.50 324.50 333.00 667.00 Z"></path>
	<path stroke="rgb(103,239,1)" fill="rgb(103,239,1)" d="M 319.50 324.50 L 323.88 328.63 333.00 667.00 Z"></path>
	<path stroke="rgb(105,238,1)" fill="rgb(105,238,1)" d="M 323.88 328.63 L 328.25 332.75 333.00 667.00 Z"></path>
	<path stroke="rgb(108,237,1)" fill="rgb(108,237,1)" d="M 328.25 332.75 L 332.63 336.87 333.00 667.00 Z"></path>
	<path stroke="rgb(110,237,1)" fill="rgb(110,237,1)" d="M 332.63 336.87 L 337.00 341.00 333.00 667.00 Z"></path>
	<path stroke="rgb(113,236,1)" fill="rgb(113,236,1)" d="M 337.00 341.00 L 341.50 345.38 333.00 667.00 Z"></path>
	<path stroke="rgb(115,235,1)" fill="rgb(115,235,1)" d="M 341.50 345.38 L 346.00 349.75 333.00 667.00 Z"></path>
	<path stroke="rgb(118,234,1)" fill="rgb(118,234,1)" d="M 346.00 349.75 L 350.50 354.13 333.00 667.00 Z"></path>
	<path stroke="rgb(120,233,1)" fill="rgb(120,233,1)" d="M 350.50 354.13 L 355.00 358.50 333.00 667.00 Z"></path>
	<path stroke="rgb(122,232,1)" fill="rgb(122,232,1)" d="M 355.00 358.50 L 359.50 362.88 333.00 667.00 Z"></path>
	<path stroke="rgb(125,231,1)" fill="rgb(125,231,1)" d="M 359.50 362.88 L 364.00 367.25 333.00 667.00 Z"></path>
	<path stroke="rgb(127,229,1)" fill="rgb(127,229,1)" d="M 364.00 367.25 L 368.50 371.63 333.00 667.00 Z"></path>
	<path stroke="rgb(129,228,1)" fill="rgb(129,228,1)" d="M 368.50 371.63 L 373.00 376.00 333.00 667.00 Z"></path>
	<path stroke="rgb(131,227,1)" fill="rgb(131,227,1)" d="M 373.00 376.00 L 377.50 380.25 333.00 667.00 Z"></path>
	<path stroke="rgb(134,226,1)" fill="rgb(134,226,1)" d="M 377.50 380.25 L 382.00 384.50 333.00 667.00 Z"></path>
	<path stroke="rgb(136,225,1)" fill="rgb(136,225,1)" d="M 382.00 384.50 L 386.50 388.75 333.00 667.00 Z"></path>
	<path stroke="rgb(138,224,1)" fill="rgb(138,224,1)" d="M 386.50 388.75 L 391.00 393.00 333.00 667.00 Z"></path>
	<path stroke="rgb(140,223,1)" fill="rgb(140,223,1)" d="M 391.00 393.00 L 395.50 397.25 333.00 667.00 Z"></path>
	<path stroke="rgb(142,222,1)" fill="rgb(142,222,1)" d="M 395.50 397.25 L 400.00 401.50 333.00 667.00 Z"></path>
	<path stroke="rgb(144,221,1)" fill="rgb(144,221,1)" d="M 400.00 401.50 L 404.50 405.75 333.00 667.00 Z"></path>
	<path stroke="rgb(146,219,1)" fill="rgb(146,219,1)" d="M 404.50 405.75 L 409.00 410.00 333.00 667.00 Z"></path>
	<path stroke="rgb(148,218,1)" fill="rgb(148,218,1)" d="M 409.00 410.00 L 413.38 414.38 333.00 667.00 Z"></path>
	<path stroke="rgb(150,217,1)" fill="rgb(150,217,1)" d="M 413.38 414.38 L 417.75 418.75 333.00 667.00 Z"></path>
	<path stroke="rgb(152,216,1)" fill="rgb(152,216,1)" d="M 417.75 418.75 L 422.13 423.13 333.00 667.00 Z"></path>
	<path stroke="rgb(154,215,1)" fill="rgb(154,215,1)" d="M 422.13 423.13 L 426.50 427.50 333.00 667.00 Z"></path>
	<path stroke="rgb(156,213,1)" fill="rgb(156,213,1)" d="M 426.50 427.50 L 430.88 431.88 333.00 667.00 Z"></path>
	<path stroke="rgb(158,212,1)" fill="rgb(158,212,1)" d="M 430.88 431.88 L 435.25 436.25 333.00 667.00 Z"></path>
	<path stroke="rgb(160,211,1)" fill="rgb(160,211,1)" d="M 435.25 436.25 L 439.63 440.62 333.00 667.00 Z"></path>
	<path stroke="rgb(162,209,1)" fill="rgb(162,209,1)" d="M 439.63 440.62 L 444.00 445.00 333.00 667.00 Z"></path>
	<path stroke="rgb(163,208,1)" fill="rgb(163,208,1)" d="M 444.00 445.00 L 448.38 449.38 333.00 667.00 Z"></path>
	<path stroke="rgb(165,207,1)" fill="rgb(165,207,1)" d="M 448.38 449.38 L 452.75 453.75 333.00 667.00 Z"></path>
	<path stroke="rgb(167,205,1)" fill="rgb(167,205,1)" d="M 452.75 453.75 L 457.13 458.12 333.00 667.00 Z"></path>
	<path stroke="rgb(169,204,1)" fill="rgb(169,204,1)" d="M 457.13 458.12 L 461.50 462.50 333.00 667.00 Z"></path>
	<path stroke="rgb(171,203,1)" fill="rgb(171,203,1)" d="M 461.50 462.50 L 465.88 466.87 333.00 667.00 Z"></path>
	<path stroke="rgb(173,201,1)" fill="rgb(173,201,1)" d="M 465.88 466.87 L 470.25 471.25 333.00 667.00 Z"></path>
	<path stroke="rgb(174,200,1)" fill="rgb(174,200,1)" d="M 470.25 471.25 L 474.62 475.63 333.00 667.00 Z"></path>
	<path stroke="rgb(176,198,1)" fill="rgb(176,198,1)" d="M 474.62 475.63 L 479.00 480.00 333.00 667.00 Z"></path>
	<path stroke="rgb(178,197,1)" fill="rgb(178,197,1)" d="M 479.00 480.00 L 483.12 484.13 333.00 667.00 Z"></path>
	<path stroke="rgb(180,195,1)" fill="rgb(180,195,1)" d="M 483.12 484.13 L 487.25 488.25 333.00 667.00 Z"></path>
	<path stroke="rgb(181,193,1)" fill="rgb(181,193,1)" d="M 487.25 488.25 L 491.38 492.38 333.00 667.00 Z"></path>
	<path stroke="rgb(183,192,1)" fill="rgb(183,192,1)" d="M 491.38 492.38 L 495.50 496.50 333.00 667.00 Z"></path>
	<path stroke="rgb(185,190,1)" fill="rgb(185,190,1)" d="M 495.50 496.50 L 499.63 500.63 333.00 667.00 Z"></path>
	<path stroke="rgb(186,189,1)" fill="rgb(186,189,1)" d="M 499.63 500.63 L 503.75 504.75 333.00 667.00 Z"></path>
	<path stroke="rgb(188,187,1)" fill="rgb(188,187,1)" d="M 503.75 504.75 L 507.87 508.88 333.00 667.00 Z"></path>
	<path stroke="rgb(190,185,1)" fill="rgb(190,185,1)" d="M 507.87 508.88 L 512.00 513.00 333.00 667.00 Z"></path>
	<path stroke="rgb(191,184,1)" fill="rgb(191,184,1)" d="M 512.00 513.00 L 516.13 517.13 333.00 667.00 Z"></path>
	<path stroke="rgb(193,182,1)" fill="rgb(193,182,1)" d="M 516.13 517.13 L 520.25 521.25 333.00 667.00 Z"></path>
	<path stroke="rgb(195,180,1)" fill="rgb(195,180,1)" d="M 520.25 521.25 L 524.38 525.38 333.00 667.00 Z"></path>
	<path stroke="rgb(196,178,1)" fill="rgb(196,178,1)" d="M 524.38 525.38 L 528.50 529.50 333.00 667.00 Z"></path>
	<path stroke="rgb(198,176,1)" fill="rgb(198,176,1)" d="M 528.50 529.50 L 532.63 533.63 333.00 667.00 Z"></path>
	<path stroke="rgb(199,174,1)" fill="rgb(199,174,1)" d="M 532.63 533.63 L 536.75 537.75 333.00 667.00 Z"></path>
	<path stroke="rgb(201,172,1)" fill="rgb(201,172,1)" d="M 536.75 537.75 L 540.88 541.88 333.00 667.00 Z"></path>
	<path stroke="rgb(203,170,1)" fill="rgb(203,170,1)" d="M 540.88 541.88 L 545.00 546.00 333.00 667.00 Z"></path>
	<path stroke="rgb(204,168,1)" fill="rgb(204,168,1)" d="M 545.00 546.00 L 548.75 549.75 333.00 667.00 Z"></path>
	<path stroke="rgb(206,167,1)" fill="rgb(206,167,1)" d="M 548.75 549.75 L 552.50 553.50 333.00 667.00 Z"></path>
	<path stroke="rgb(207,165,1)" fill="rgb(207,165,1)" d="M 552.50 553.50 L 556.25 557.25 333.00 667.00 Z"></path>
	<path stroke="rgb(209,163,1)" fill="rgb(209,163,1)" d="M 556.25 557.25 L 560.00 561.00 333.00 667.00 Z"></path>
	<path stroke="rgb(210,160,1)" fill="rgb(210,160,1)" d="M 560.00 561.00 L 563.75 564.75 333.00 667.00 Z"></path>
	<path stroke="rgb(212,158,1)" fill="rgb(212,158,1)" d="M 563.75 564.75 L 567.50 568.50 333.00 667.00 Z"></path>
	<path stroke="rgb(213,156,1)" fill="rgb(213,156,1)" d="M 567.50 568.50 L 571.25 572.25 333.00 667.00 Z"></path>
	<path stroke="rgb(215,154,1)" fill="rgb(215,154,1)" d="M 571.25 572.25 L 575.00 576.00 333.00 667.00 Z"></path>
	<path stroke="rgb(216,152,1)" fill="rgb(216,152,1)" d="M 575.00 576.00 L 578.50 579.38 333.00 667.00 Z"></path>
	<path stroke="rgb(217,149,1)" fill="rgb(217,149,1)" d="M 578.50 579.38 L 582.00 582.75 333.00 667.00 Z"></path>
	<path stroke="rgb(219,147,1)" fill="rgb(219,147,1)" d="M 582.00 582.75 L 585.50 586.13 333.00 667.00 Z"></path>
	<path stroke="rgb(220,145,1)" fill="rgb(220,145,1)" d="M 585.50 586.13 L 589.00 589.50 333.00 667.00 Z"></path>
	<path stroke="rgb(221,143,1)" fill="rgb(221,143,1)" d="M 589.00 589.50 L 592.50 592.88 333.00 667.00 Z"></path>
	<path stroke="rgb(223,140,1)" fill="rgb(223,140,1)" d="M 592.50 592.88 L 596.00 596.25 333.00 667.00 Z"></path>
	<path stroke="rgb(224,138,1)" fill="rgb(224,138,1)" d="M 596.00 596.25 L 599.50 599.63 333.00 667.00 Z"></path>
	<path stroke="rgb(226,135,1)" fill="rgb(226,135,1)" d="M 599.50 599.63 L 603.00 603.00 333.00 667.00 Z"></path>
	<path stroke="rgb(227,133,1)" fill="rgb(227,133,1)" d="M 603.00 603.00 L 606.00 606.13 333.00 667.00 Z"></path>
	<path stroke="rgb(228,130,1)" fill="rgb(228,130,1)" d="M 606.00 606.13 L 609.00 609.25 333.00 667.00 Z"></path>
	<path stroke="rgb(229,127,1)" fill="rgb(229,127,1)" d="M 609.00 609.25 L 612.00 612.38 333.00 667.00 Z"></path>
	<path stroke="rgb(231,125,1)" fill="rgb(231,125,1)" d="M 612.00 612.38 L 615.00 615.50 333.00 667.00 Z"></path>
	<path stroke="rgb(232,122,1)" fill="rgb(232,122,1)" d="M 615.00 615.50 L 618.00 618.63 333.00 667.00 Z"></path>
	<path stroke="rgb(233,119,1)" fill="rgb(233,119,1)" d="M 618.00 618.63 L 621.00 621.75 333.00 667.00 Z"></path>
	<path stroke="rgb(234,116,1)" fill="rgb(234,116,1)" d="M 621.00 621.75 L 624.00 624.88 333.00 667.00 Z"></path>
	<path stroke="rgb(235,113,1)" fill="rgb(235,113,1)" d="M 624.00 624.88 L 627.00 628.00 333.00 667.00 Z"></path>
	<path stroke="rgb(237,109,1)" fill="rgb(237,109,1)" d="M 627.00 628.00 L 631.88 632.75 333.00 667.00 Z"></path>
	<path stroke="rgb(239,103,1)" fill="rgb(239,103,1)" d="M 631.88 632.75 L 636.75 637.50 333.00 667.00 Z"></path>
	<path stroke="rgb(240,98,13)" fill="rgb(240,98,13)" d="M 636.75 637.50 L 641.63 642.25 333.00 667.00 Z"></path>
	<path stroke="rgb(240,95,29)" fill="rgb(240,95,29)" d="M 641.63 642.25 L 646.50 647.00 333.00 667.00 Z"></path>
	<path stroke="rgb(240,91,40)" fill="rgb(240,91,40)" d="M 646.50 647.00 L 651.38 651.75 333.00 667.00 Z"></path>
	<path stroke="rgb(241,87,48)" fill="rgb(241,87,48)" d="M 651.38 651.75 L 656.25 656.50 333.00 667.00 Z"></path>
	<path stroke="rgb(241,83,54)" fill="rgb(241,83,54)" d="M 656.25 656.50 L 661.13 661.25 333.00 667.00 Z"></path>
	<path stroke="rgb(241,79,60)" fill="rgb(241,79,60)" d="M 661.13 661.25 L 666.00 666.00 333.00 667.00 Z"></path>
	<path stroke="rgb(241,76,64)" fill="rgb(241,76,64)" d="M 666.00 666.00 L 669.25 669.25 333.00 667.00 Z"></path>
	<path stroke="rgb(241,73,67)" fill="rgb(241,73,67)" d="M 669.25 669.25 L 672.50 672.50 333.00 667.00 Z"></path>
	<path stroke="rgb(241,70,70)" fill="rgb(241,70,70)" d="M 672.50 672.50 L 675.75 675.75 333.00 667.00 Z"></path>
	<path stroke="rgb(241,68,72)" fill="rgb(241,68,72)" d="M 675.75 675.75 L 679.00 679.00 333.00 667.00 Z"></path>
	<path stroke="rgb(241,65,75)" fill="rgb(241,65,75)" d="M 679.00 679.00 L 682.25 682.25 333.00 667.00 Z"></path>
	<path stroke="rgb(241,62,77)" fill="rgb(241,62,77)" d="M 682.25 682.25 L 685.50 685.50 333.00 667.00 Z"></path>
	<path stroke="rgb(241,59,80)" fill="rgb(241,59,80)" d="M 685.50 685.50 L 688.75 688.75 333.00 667.00 Z"></path>
	<path stroke="rgb(241,56,82)" fill="rgb(241,56,82)" d="M 688.75 688.75 L 692.00 692.00 333.00 667.00 Z"></path>
	<path stroke="rgb(241,54,83)" fill="rgb(241,54,83)" d="M 692.00 692.00 L 694.00 694.00 333.00 667.00 Z"></path>
	<path stroke="rgb(241,52,85)" fill="rgb(241,52,85)" d="M 694.00 694.00 L 696.00 696.00 333.00 667.00 Z"></path>
	<path stroke="rgb(241,50,86)" fill="rgb(241,50,86)" d="M 696.00 696.00 L 698.00 698.00 333.00 667.00 Z"></path>
	<path stroke="rgb(241,48,87)" fill="rgb(241,48,87)" d="M 698.00 698.00 L 700.00 700.00 333.00 667.00 Z"></path>
	<path stroke="rgb(241,46,88)" fill="rgb(241,46,88)" d="M 700.00 700.00 L 702.00 702.00 333.00 667.00 Z"></path>
	<path stroke="rgb(240,43,89)" fill="rgb(240,43,89)" d="M 702.00 702.00 L 704.00 704.00 333.00 667.00 Z"></path>
	<path stroke="rgb(240,41,90)" fill="rgb(240,41,90)" d="M 704.00 704.00 L 706.00 706.00 333.00 667.00 Z"></path>
	<path stroke="rgb(240,39,91)" fill="rgb(240,39,91)" d="M 706.00 706.00 L 708.00 708.00 333.00 667.00 Z"></path>
	<path stroke="rgb(240,37,92)" fill="rgb(240,37,92)" d="M 708.00 708.00 L 709.38 709.38 333.00 667.00 Z"></path>
	<path stroke="rgb(240,35,93)" fill="rgb(240,35,93)" d="M 709.38 709.38 L 710.75 710.75 333.00 667.00 Z"></path>
	<path stroke="rgb(240,33,93)" fill="rgb(240,33,93)" d="M 710.75 710.75 L 712.13 712.13 333.00 667.00 Z"></path>
	<path stroke="rgb(240,31,94)" fill="rgb(240,31,94)" d="M 712.13 712.13 L 713.50 713.50 333.00 667.00 Z"></path>
	<path stroke="rgb(240,29,95)" fill="rgb(240,29,95)" d="M 713.50 713.50 L 714.87 714.88 333.00 667.00 Z"></path>
	<path stroke="rgb(240,27,95)" fill="rgb(240,27,95)" d="M 714.87 714.88 L 716.25 716.25 333.00 667.00 Z"></path>
	<path stroke="rgb(240,25,96)" fill="rgb(240,25,96)" d="M 716.25 716.25 L 717.63 717.63 333.00 667.00 Z"></path>
	<path stroke="rgb(240,23,96)" fill="rgb(240,23,96)" d="M 717.63 717.63 L 719.00 719.00 333.00 667.00 Z"></path>
	<path stroke="rgb(240,21,97)" fill="rgb(240,21,97)" d="M 719.00 719.00 L 719.87 719.88 333.00 667.00 Z"></path>
	<path stroke="rgb(240,19,97)" fill="rgb(240,19,97)" d="M 719.87 719.88 L 720.75 720.75 333.00 667.00 Z"></path>
	<path stroke="rgb(240,17,98)" fill="rgb(240,17,98)" d="M 720.75 720.75 L 721.63 721.63 333.00 667.00 Z"></path>
	<path stroke="rgb(240,15,98)" fill="rgb(240,15,98)" d="M 721.63 721.63 L 722.50 722.50 333.00 667.00 Z"></path>
	<path stroke="rgb(240,13,98)" fill="rgb(240,13,98)" d="M 722.50 722.50 L 723.38 723.38 333.00 667.00 Z"></path>
	<path stroke="rgb(240,10,99)" fill="rgb(240,10,99)" d="M 723.38 723.38 L 724.25 724.25 333.00 667.00 Z"></path>
	<path stroke="rgb(240,8,99)" fill="rgb(240,8,99)" d="M 724.25 724.25 L 725.13 725.13 333.00 667.00 Z"></path>
	<path stroke="rgb(240,5,100)" fill="rgb(240,5,100)" d="M 725.13 725.13 L 726.00 726.00 333.00 667.00 Z"></path>
	<path stroke="rgb(240,3,100)" fill="rgb(240,3,100)" d="M 726.00 726.00 L 726.50 726.50 333.00 667.00 Z"></path>
	<path stroke="rgb(240,1,100)" fill="rgb(240,1,100)" d="M 726.50 726.50 L 727.00 727.00 333.00 667.00 Z"></path>
	<path stroke="rgb(240,1,100)" fill="rgb(240,1,100)" d="M 727.00 727.00 L 727.50 727.50 333.00 667.00 Z"></path>
	<path stroke="rgb(240,1,101)" fill="rgb(240,1,101)" d="M 727.50 727.50 L 728.00 728.00 333.00 667.00 Z"></path>
	<path stroke="rgb(240,1,101)" fill="rgb(240,1,101)" d="M 728.00 728.00 L 728.50 728.50 333.00 667.00 Z"></path>
	<path stroke="rgb(240,1,101)" fill="rgb(240,1,101)" d="M 728.50 728.50 L 729.00 729.00 333.00 667.00 Z"></path>
	<path stroke="rgb(240,1,101)" fill="rgb(240,1,101)" d="M 729.00 729.00 L 729.50 729.50 333.00 667.00 Z"></path>
	<path stroke="rgb(240,1,102)" fill="rgb(240,1,102)" d="M 729.50 729.50 L 730.00 730.00 333.00 667.00 Z"></path>
	<path stroke="rgb(239,1,102)" fill="rgb(239,1,102)" d="M 730.00 730.00 L 730.25 730.25 333.00 667.00 Z"></path>
	<path stroke="rgb(239,1,102)" fill="rgb(239,1,102)" d="M 730.25 730.25 L 730.50 730.50 333.00 667.00 Z"></path>
	<path stroke="rgb(239,1,102)" fill="rgb(239,1,102)" d="M 730.50 730.50 L 730.75 730.75 333.00 667.00 Z"></path>
	<path stroke="rgb(239,1,102)" fill="rgb(239,1,102)" d="M 730.75 730.75 L 731.00 731.00 333.00 667.00 Z"></path>
	<path stroke="rgb(239,1,102)" fill="rgb(239,1,102)" d="M 731.00 731.00 L 731.25 731.25 333.00 667.00 Z"></path>
	<path stroke="rgb(239,1,103)" fill="rgb(239,1,103)" d="M 731.25 731.25 L 731.50 731.50 333.00 667.00 Z"></path>
	<path stroke="rgb(239,1,103)" fill="rgb(239,1,103)" d="M 731.50 731.50 L 731.75 731.75 333.00 667.00 Z"></path>
	<path stroke="rgb(239,1,103)" fill="rgb(239,1,103)" d="M 731.75 731.75 L 732.00 732.00 333.00 667.00 Z"></path>
	<path stroke="rgb(239,1,103)" fill="rgb(239,1,103)" d="M 732.00 732.00 L 732.12 732.13 333.00 667.00 Z"></path>
	<path stroke="rgb(239,1,103)" fill="rgb(239,1,103)" d="M 732.12 732.13 L 732.25 732.25 333.00 667.00 Z"></path>
	<path stroke="rgb(239,1,103)" fill="rgb(239,1,103)" d="M 732.25 732.25 L 732.38 732.38 333.00 667.00 Z"></path>
	<path stroke="rgb(239,1,103)" fill="rgb(239,1,103)" d="M 732.38 732.38 L 732.50 732.50 333.00 667.00 Z"></path>
	<path stroke="rgb(239,1,103)" fill="rgb(239,1,103)" d="M 732.50 732.50 L 732.63 732.63 333.00 667.00 Z"></path>
	<path stroke="rgb(239,1,103)" fill="rgb(239,1,103)" d="M 732.63 732.63 L 732.75 732.75 333.00 667.00 Z"></path>
	<path stroke="rgb(239,1,103)" fill="rgb(239,1,103)" d="M 732.75 732.75 L 732.88 732.88 333.00 667.00 Z"></path>
	<path stroke="rgb(239,1,103)" fill="rgb(239,1,103)" d="M 732.88 732.88 L 733.00 733.00 333.00 667.00 Z"></path>
	<path stroke="rgb(239,1,104)" fill="rgb(239,1,104)" d="M 733.00 733.00 L 733.13 733.13 333.00 667.00 Z"></path>
	<path stroke="rgb(239,1,104)" fill="rgb(239,1,104)" d="M 733.13 733.13 L 733.25 733.25 333.00 667.00 Z"></path>
	<path stroke="rgb(239,1,104)" fill="rgb(239,1,104)" d="M 733.25 733.25 L 733.38 733.38 333.00 667.00 Z"></path>
	<path stroke="rgb(239,1,104)" fill="rgb(239,1,104)" d="M 733.38 733.38 L 733.50 733.50 333.00 667.00 Z"></path>
	<path stroke="rgb(239,1,104)" fill="rgb(239,1,104)" d="M 733.50 733.50 L 733.63 733.63 333.00 667.00 Z"></path>
	<path stroke="rgb(239,1,104)" fill="rgb(239,1,104)" d="M 733.63 733.63 L 733.75 733.75 333.00 667.00 Z"></path>
	<path stroke="rgb(239,1,104)" fill="rgb(239,1,104)" d="M 733.75 733.75 L 733.88 733.88 333.00 667.00 Z"></path>
	<path stroke="rgb(239,1,104)" fill="rgb(239,1,104)" d="M 733.88 733.88 L 734.00 734.00 333.00 667.00 Z"></path>
	<path stroke="rgb(239,1,104)" fill="rgb(239,1,104)" d="M 734.00 734.00 L 734.13 734.13 333.00 667.00 Z"></path>
	<path stroke="rgb(239,1,104)" fill="rgb(239,1,104)" d="M 734.13 734.13 L 734.25 734.25 333.00 667.00 Z"></path>
	<path stroke="rgb(239,1,104)" fill="rgb(239,1,104)" d="M 734.25 734.25 L 734.38 734.38 333.00 667.00 Z"></path>
	<path stroke="rgb(239,1,104)" fill="rgb(239,1,104)" d="M 734.38 734.38 L 734.50 734.50 333.00 667.00 Z"></path>
	<path stroke="rgb(239,1,104)" fill="rgb(239,1,104)" d="M 734.50 734.50 L 734.63 734.63 333.00 667.00 Z"></path>
	<path stroke="rgb(239,1,104)" fill="rgb(239,1,104)" d="M 734.63 734.63 L 734.75 734.75 333.00 667.00 Z"></path>
	<path stroke="rgb(239,1,104)" fill="rgb(239,1,104)" d="M 734.75 734.75 L 734.88 734.88 333.00 667.00 Z"></path>
	<path stroke="rgb(239,1,105)" fill="rgb(239,1,105)" d="M 734.88 734.88 L 735.00 735.00 333.00 667.00 Z"></path>
	<path stroke="rgb(238,1,107)" fill="rgb(238,1,107)" d="M 735.00 735.00 L 726.25 739.06 333.00 667.00 Z"></path>
	<path stroke="rgb(236,1,111)" fill="rgb(236,1,111)" d="M 726.25 739.06 L 717.50 743.13 333.00 667.00 Z"></path>
	<path stroke="rgb(234,1,116)" fill="rgb(234,1,116)" d="M 717.50 743.13 L 708.75 747.19 333.00 667.00 Z"></path>
	<path stroke="rgb(233,1,120)" fill="rgb(233,1,120)" d="M 708.75 747.19 L 700.00 751.25 333.00 667.00 Z"></path>
	<path stroke="rgb(231,1,124)" fill="rgb(231,1,124)" d="M 700.00 751.25 L 691.25 755.31 333.00 667.00 Z"></path>
	<path stroke="rgb(229,1,127)" fill="rgb(229,1,127)" d="M 691.25 755.31 L 682.50 759.38 333.00 667.00 Z"></path>
	<path stroke="rgb(228,1,131)" fill="rgb(228,1,131)" d="M 682.50 759.38 L 673.75 763.44 333.00 667.00 Z"></path>
	<path stroke="rgb(226,1,134)" fill="rgb(226,1,134)" d="M 673.75 763.44 L 665.00 767.50 333.00 667.00 Z"></path>
	<path stroke="rgb(224,1,138)" fill="rgb(224,1,138)" d="M 665.00 767.50 L 656.25 771.56 333.00 667.00 Z"></path>
	<path stroke="rgb(223,1,141)" fill="rgb(223,1,141)" d="M 656.25 771.56 L 647.50 775.63 333.00 667.00 Z"></path>
	<path stroke="rgb(221,1,144)" fill="rgb(221,1,144)" d="M 647.50 775.63 L 638.75 779.69 333.00 667.00 Z"></path>
	<path stroke="rgb(219,1,147)" fill="rgb(219,1,147)" d="M 638.75 779.69 L 630.00 783.75 333.00 667.00 Z"></path>
	<path stroke="rgb(217,1,150)" fill="rgb(217,1,150)" d="M 630.00 783.75 L 621.25 787.81 333.00 667.00 Z"></path>
	<path stroke="rgb(216,1,152)" fill="rgb(216,1,152)" d="M 621.25 787.81 L 612.50 791.88 333.00 667.00 Z"></path>
	<path stroke="rgb(214,1,155)" fill="rgb(214,1,155)" d="M 612.50 791.88 L 603.75 795.94 333.00 667.00 Z"></path>
	<path stroke="rgb(212,1,158)" fill="rgb(212,1,158)" d="M 603.75 795.94 L 595.00 800.00 333.00 667.00 Z"></path>
	<path stroke="rgb(210,1,160)" fill="rgb(210,1,160)" d="M 595.00 800.00 L 586.25 804.06 333.00 667.00 Z"></path>
	<path stroke="rgb(208,1,163)" fill="rgb(208,1,163)" d="M 586.25 804.06 L 577.50 808.13 333.00 667.00 Z"></path>
	<path stroke="rgb(207,1,165)" fill="rgb(207,1,165)" d="M 577.50 808.13 L 568.75 812.19 333.00 667.00 Z"></path>
	<path stroke="rgb(205,1,168)" fill="rgb(205,1,168)" d="M 568.75 812.19 L 560.00 816.25 333.00 667.00 Z"></path>
	<path stroke="rgb(203,1,170)" fill="rgb(203,1,170)" d="M 560.00 816.25 L 551.25 820.31 333.00 667.00 Z"></path>
	<path stroke="rgb(201,1,172)" fill="rgb(201,1,172)" d="M 551.25 820.31 L 542.50 824.38 333.00 667.00 Z"></path>
	<path stroke="rgb(199,1,175)" fill="rgb(199,1,175)" d="M 542.50 824.38 L 533.75 828.44 333.00 667.00 Z"></path>
	<path stroke="rgb(197,1,177)" fill="rgb(197,1,177)" d="M 533.75 828.44 L 525.00 832.50 333.00 667.00 Z"></path>
	<path stroke="rgb(196,1,179)" fill="rgb(196,1,179)" d="M 525.00 832.50 L 516.25 836.56 333.00 667.00 Z"></path>
	<path stroke="rgb(194,1,181)" fill="rgb(194,1,181)" d="M 516.25 836.56 L 507.50 840.63 333.00 667.00 Z"></path>
	<path stroke="rgb(192,1,183)" fill="rgb(192,1,183)" d="M 507.50 840.63 L 498.75 844.69 333.00 667.00 Z"></path>
	<path stroke="rgb(190,1,185)" fill="rgb(190,1,185)" d="M 498.75 844.69 L 490.00 848.75 333.00 667.00 Z"></path>
	<path stroke="rgb(188,1,187)" fill="rgb(188,1,187)" d="M 490.00 848.75 L 481.25 852.81 333.00 667.00 Z"></path>
	<path stroke="rgb(186,1,189)" fill="rgb(186,1,189)" d="M 481.25 852.81 L 472.50 856.88 333.00 667.00 Z"></path>
	<path stroke="rgb(184,1,191)" fill="rgb(184,1,191)" d="M 472.50 856.88 L 463.75 860.94 333.00 667.00 Z"></path>
	<path stroke="rgb(182,1,193)" fill="rgb(182,1,193)" d="M 463.75 860.94 L 455.00 865.00 333.00 667.00 Z"></path>
	<path stroke="rgb(180,1,195)" fill="rgb(180,1,195)" d="M 455.00 865.00 L 446.25 869.06 333.00 667.00 Z"></path>
	<path stroke="rgb(178,1,196)" fill="rgb(178,1,196)" d="M 446.25 869.06 L 437.50 873.13 333.00 667.00 Z"></path>
	<path stroke="rgb(176,1,198)" fill="rgb(176,1,198)" d="M 437.50 873.13 L 428.75 877.19 333.00 667.00 Z"></path>
	<path stroke="rgb(174,1,200)" fill="rgb(174,1,200)" d="M 428.75 877.19 L 420.00 881.25 333.00 667.00 Z"></path>
	<path stroke="rgb(172,1,202)" fill="rgb(172,1,202)" d="M 420.00 881.25 L 411.25 885.31 333.00 667.00 Z"></path>
	<path stroke="rgb(170,1,203)" fill="rgb(170,1,203)" d="M 411.25 885.31 L 402.50 889.38 333.00 667.00 Z"></path>
	<path stroke="rgb(167,1,205)" fill="rgb(167,1,205)" d="M 402.50 889.38 L 393.75 893.44 333.00 667.00 Z"></path>
	<path stroke="rgb(165,1,207)" fill="rgb(165,1,207)" d="M 393.75 893.44 L 385.00 897.50 333.00 667.00 Z"></path>
	<path stroke="rgb(163,1,208)" fill="rgb(163,1,208)" d="M 385.00 897.50 L 376.25 901.56 333.00 667.00 Z"></path>
	<path stroke="rgb(161,1,210)" fill="rgb(161,1,210)" d="M 376.25 901.56 L 367.50 905.63 333.00 667.00 Z"></path>
	<path stroke="rgb(159,1,211)" fill="rgb(159,1,211)" d="M 367.50 905.63 L 358.75 909.69 333.00 667.00 Z"></path>
	<path stroke="rgb(156,1,213)" fill="rgb(156,1,213)" d="M 358.75 909.69 L 350.00 913.75 333.00 667.00 Z"></path>
	<path stroke="rgb(154,1,215)" fill="rgb(154,1,215)" d="M 350.00 913.75 L 341.25 917.81 333.00 667.00 Z"></path>
	<path stroke="rgb(152,1,216)" fill="rgb(152,1,216)" d="M 341.25 917.81 L 332.50 921.88 333.00 667.00 Z"></path>
	<path stroke="rgb(149,1,218)" fill="rgb(149,1,218)" d="M 332.50 921.88 L 323.75 925.94 333.00 667.00 Z"></path>
	<path stroke="rgb(147,1,219)" fill="rgb(147,1,219)" d="M 323.75 925.94 L 315.00 930.00 333.00 667.00 Z"></path>
	<path stroke="rgb(144,1,220)" fill="rgb(144,1,220)" d="M 315.00 930.00 L 306.25 934.06 333.00 667.00 Z"></path>
	<path stroke="rgb(142,1,222)" fill="rgb(142,1,222)" d="M 306.25 934.06 L 297.50 938.13 333.00 667.00 Z"></path>
	<path stroke="rgb(139,1,223)" fill="rgb(139,1,223)" d="M 297.50 938.13 L 288.75 942.19 333.00 667.00 Z"></path>
	<path stroke="rgb(137,1,225)" fill="rgb(137,1,225)" d="M 288.75 942.19 L 280.00 946.25 333.00 667.00 Z"></path>
	<path stroke="rgb(134,1,226)" fill="rgb(134,1,226)" d="M 280.00 946.25 L 271.25 950.31 333.00 667.00 Z"></path>
	<path stroke="rgb(131,1,227)" fill="rgb(131,1,227)" d="M 271.25 950.31 L 262.50 954.38 333.00 667.00 Z"></path>
	<path stroke="rgb(129,1,229)" fill="rgb(129,1,229)" d="M 262.50 954.38 L 253.75 958.44 333.00 667.00 Z"></path>
	<path stroke="rgb(126,1,230)" fill="rgb(126,1,230)" d="M 253.75 958.44 L 245.00 962.50 333.00 667.00 Z"></path>
	<path stroke="rgb(123,1,231)" fill="rgb(123,1,231)" d="M 245.00 962.50 L 236.25 966.56 333.00 667.00 Z"></path>
	<path stroke="rgb(120,1,233)" fill="rgb(120,1,233)" d="M 236.25 966.56 L 227.50 970.63 333.00 667.00 Z"></path>
	<path stroke="rgb(117,1,234)" fill="rgb(117,1,234)" d="M 227.50 970.63 L 218.75 974.69 333.00 667.00 Z"></path>
	<path stroke="rgb(114,1,235)" fill="rgb(114,1,235)" d="M 218.75 974.69 L 210.00 978.75 333.00 667.00 Z"></path>
	<path stroke="rgb(111,1,236)" fill="rgb(111,1,236)" d="M 210.00 978.75 L 201.25 982.81 333.00 667.00 Z"></path>
	<path stroke="rgb(107,1,238)" fill="rgb(107,1,238)" d="M 201.25 982.81 L 192.50 986.88 333.00 667.00 Z"></path>
	<path stroke="rgb(104,1,239)" fill="rgb(104,1,239)" d="M 192.50 986.88 L 183.75 990.94 333.00 667.00 Z"></path>
	<path stroke="rgb(100,1,240)" fill="rgb(100,1,240)" d="M 183.75 990.94 L 175.00 995.00 333.00 667.00 Z"></path>
	<path stroke="white" fill="none" stroke-width="1"></path>
	<radialGradient id="grad" cx="0.5" cy="0.5" r="0.5">
		<stop offset="0%" stop-color="#bbb" stop-opacity="1"></stop>
		<stop offset="10%" stop-color="#bbb" stop-opacity=".99"></stop>
		<stop offset="20%" stop-color="#bbb" stop-opacity=".95"></stop>
		<stop offset="30%" stop-color="#bbb" stop-opacity=".85"></stop>
		<stop offset="40%" stop-color="#bbb" stop-opacity=".65"></stop>
		<stop offset="50%" stop-color="#bbb" stop-opacity=".45"></stop>
		<stop offset="60%" stop-color="#bbb" stop-opacity=".30"></stop>
		<stop offset="70%" stop-color="#bbb" stop-opacity=".20"></stop>
		<stop offset="80%" stop-color="#bbb" stop-opacity=".10"></stop>
		<stop offset="90%" stop-color="#bbb" stop-opacity=".05"></stop>
		<stop offset="100%" stop-color="#bbb" stop-opacity="0"></stop>
	</radialGradient>
	<circle cx="333.3" cy="666.7" r="200" fill="url(#grad)"></circle>
</svg>